<?xml version="1.0" encoding="utf-8"?>
<!-- Generator: Adobe Illustrator 28.0.0, SVG Export Plug-In . SVG Version: 6.00 Build 0)  -->
<svg version="1.1" id="Layer_1" xmlns="http://www.w3.org/2000/svg" xmlns:xlink="http://www.w3.org/1999/xlink" x="0px" y="0px"
	 viewBox="0 0 84 84" style="enable-background:new 0 0 84 84;" xml:space="preserve">
<style type="text/css">
	.st0{fill:#FFFFFF;}
	.st1{fill:#43AEE8;}
	.st2{fill:#333333;}
	.st3{fill:#CCCCCC;}
	.st4{fill:#E6E6E6;}
	.st5{fill:#F46974;}
	.st6{fill:#F7D959;}
</style>
<g>
	<g>
		<g>
			<path class="st0" d="M17.5,51.6v12c0,1.5,1.2,2.8,2.8,2.8h38.4c1.5,0,2.8-1.2,2.8-2.8v-12C61.5,51.6,17.5,51.6,17.5,51.6z"/>
		</g>
		<g>
			<path class="st1" d="M61.4,20.4c0-1.5-1.2-2.8-2.8-2.8H20.2c-1.5,0-2.8,1.2-2.8,2.8v31.1h44V20.4z"/>
		</g>
	</g>
	<g>
		<path class="st2" d="M58.7,67H20.2c-1.9,0-3.4-1.5-3.4-3.4V20.5c0-1.9,1.5-3.4,3.4-3.4h38.4c1.9,0,3.4,1.5,3.4,3.4v43.1
			C62.1,65.5,60.6,67,58.7,67z M20.2,18.3c-1.2,0-2.1,1-2.1,2.1v43.1c0,1.2,1,2.1,2.1,2.1h38.4c1.2,0,2.1-1,2.1-2.1V20.4
			c0-1.2-1-2.1-2.1-2.1H20.2z"/>
	</g>
	<g>
		<path class="st0" d="M57.4,47.3c0,0.3-0.2,0.5-0.5,0.5H22c-0.3,0-0.5-0.2-0.5-0.5V21.9c0-0.3,0.2-0.5,0.5-0.5h34.8
			c0.3,0,0.5,0.2,0.5,0.5v25.4H57.4z"/>
	</g>
	<g>
		<g>
			<rect x="24.8" y="55.5" class="st3" width="31.5" height="0.8"/>
		</g>
		<g>
			<rect x="22.6" y="57.7" class="st3" width="33.8" height="0.8"/>
		</g>
		<g>
			<rect x="22.6" y="59.9" class="st3" width="19.7" height="0.8"/>
		</g>
	</g>
	<g>
		<g>
			<path class="st0" d="M54.8,59.1c-0.4,0.4-0.9,0.4-1.3,0L51.4,57c-0.4-0.4-0.4-0.9,0-1.3l15.5-15.5c0.4-0.4,0.9-0.4,1.3,0l2.1,2.1
				c0.4,0.4,0.4,0.9,0,1.3L54.8,59.1z"/>
			<path class="st2" d="M54.1,60c-0.4,0-0.8-0.2-1.1-0.5l-2.1-2.1c-0.6-0.6-0.6-1.6,0-2.2l15.5-15.5c0.6-0.6,1.6-0.6,2.2,0l2.1,2.1
				c0.3,0.3,0.5,0.7,0.5,1.1c0,0.4-0.2,0.8-0.5,1.1L55.2,59.5C54.9,59.8,54.5,60,54.1,60z M67.5,40.5c0,0-0.1,0-0.2,0.1L51.8,56.1
				c-0.1,0.1-0.1,0.3,0,0.4l2.1,2.1c0.1,0.1,0.1,0.1,0.2,0.1c0,0,0.1,0,0.2-0.1l15.5-15.5c0.1-0.1,0.1-0.1,0.1-0.2
				c0,0,0-0.1-0.1-0.2l-2.1-2.1C67.6,40.5,67.5,40.5,67.5,40.5z"/>
		</g>
		<g>
			<g>
				<g>
					
						<rect x="65.6" y="41.5" transform="matrix(0.707 -0.7072 0.7072 0.707 -11.5346 59.8683)" class="st4" width="1.8" height="4.8"/>
				</g>
				<g>
					<path class="st0" d="M70.3,42.3l-2.1-2.1c-0.4-0.4-0.9-0.4-1.3,0l-1.4,1.4l3.4,3.4l1.4-1.4C70.6,43.2,70.6,42.6,70.3,42.3z"/>
				</g>
			</g>
			<g>
				<path class="st2" d="M67.6,46.9c-0.2,0-0.3-0.1-0.5-0.2l-3.4-3.4c-0.3-0.3-0.3-0.7,0-0.9l2.7-2.7c0.6-0.6,1.6-0.6,2.2,0l2.1,2.1
					c0.3,0.3,0.5,0.7,0.5,1.1c0,0.4-0.2,0.8-0.5,1.1L68,46.7C68,46.8,67.8,46.9,67.6,46.9z M65.1,42.8l2.5,2.5l2.2-2.2
					c0.1-0.1,0.1-0.1,0.1-0.2c0,0,0-0.1-0.1-0.2l-2.1-2.1c-0.1-0.1-0.1-0.1-0.2-0.1c0,0-0.1,0-0.2,0.1L65.1,42.8z"/>
			</g>
			<g>
				<path class="st5" d="M64.2,42.8l-2.4,2.4L51.3,55.6c-0.4,0.4-0.4,0.9,0,1.3l2.1,2.1c0.4,0.4,0.9,0.4,1.3,0l10.5-10.5l2.4-2.4
					L64.2,42.8z"/>
			</g>
			<g>
				<path class="st2" d="M54.1,60c-0.4,0-0.8-0.2-1.1-0.5l-2.1-2.1c-0.6-0.6-0.6-1.6,0-2.2l12.9-12.9c0.1-0.1,0.3-0.2,0.5-0.2l0,0
					c0.2,0,0.3,0.1,0.5,0.2l3.4,3.4c0.3,0.3,0.3,0.7,0,0.9l-13,12.9C54.9,59.8,54.5,60,54.1,60z M64.2,43.7L51.8,56.1
					c-0.1,0.1-0.1,0.3,0,0.4l2.1,2.1c0.1,0.1,0.1,0.1,0.2,0.1c0,0,0.1,0,0.2-0.1l12.4-12.4L64.2,43.7z"/>
			</g>
		</g>
		<g>
			<polygon class="st0" points="51.2,55.8 49.5,60.9 54.6,59.2 			"/>
			<path class="st2" d="M49.5,61.5c-0.2,0-0.3-0.1-0.5-0.2c-0.2-0.2-0.2-0.4-0.2-0.7l1.7-5.1c0.1-0.2,0.3-0.4,0.5-0.4
				c0.2-0.1,0.5,0,0.6,0.2l3.4,3.4c0.2,0.2,0.2,0.4,0.2,0.6c-0.1,0.2-0.2,0.4-0.4,0.5l-5.1,1.7C49.7,61.5,49.6,61.5,49.5,61.5z
				 M51.5,57l-0.9,2.8l2.8-0.9L51.5,57z"/>
		</g>
	</g>
	<g>
		<rect x="25.4" y="34.7" class="st6" width="9.6" height="6.2"/>
	</g>
	<g>
		<rect x="25.4" y="26.1" class="st3" width="23.1" height="5.2"/>
	</g>
	<g>
		<rect x="38.2" y="34.7" class="st4" width="14.2" height="1.3"/>
	</g>
	<g>
		<rect x="38.2" y="37.2" class="st4" width="12.2" height="1.3"/>
	</g>
	<g>
		<rect x="38.2" y="39.7" class="st4" width="13.3" height="1.3"/>
	</g>
</g>
</svg>
