<?xml version="1.0" encoding="utf-8"?>
<!-- Generator: Adobe Illustrator 28.0.0, SVG Export Plug-In . SVG Version: 6.00 Build 0)  -->
<svg version="1.1" id="타이틀" xmlns="http://www.w3.org/2000/svg" xmlns:xlink="http://www.w3.org/1999/xlink" x="0px" y="0px"
	 viewBox="0 0 45 45" style="enable-background:new 0 0 45 45;" xml:space="preserve">
<style type="text/css">
	.st0{fill:#F8CE00;stroke:#282828;stroke-linecap:round;stroke-linejoin:round;}
	.st1{fill:#C6EEEC;stroke:#282828;stroke-linecap:round;stroke-linejoin:round;}
	.st2{fill:none;stroke:#282828;stroke-linecap:round;stroke-linejoin:round;}
</style>
<g>
	<g>
		<g>
			<path class="st0" d="M34.8,25.2c0-2.7-5.5-4.9-12.3-4.9c-6.8,0-12.3,2.2-12.3,4.9c0,1.3,0,7,0,8.4c0,2.7,5.5,4.9,12.3,4.9
				c6.8,0,12.3-2.2,12.3-4.9C34.8,32.2,34.8,26.5,34.8,25.2z"/>
			<path class="st1" d="M34.8,25.2c0,2.7-5.5,4.9-12.3,4.9c-6.8,0-12.3-2.2-12.3-4.9c0-2.7,5.5-4.9,12.3-4.9
				C29.3,20.3,34.8,22.5,34.8,25.2z"/>
		</g>
		<line class="st2" x1="21.6" y1="34.3" x2="23.4" y2="34.3"/>
	</g>
	<g>
		<g>
			<path class="st0" d="M34.8,11.4c0-2.7-5.5-4.9-12.3-4.9c-6.8,0-12.3,2.2-12.3,4.9c0,1.3,0,7,0,8.4c0,2.7,5.5,4.9,12.3,4.9
				c6.8,0,12.3-2.2,12.3-4.9C34.8,18.5,34.8,12.8,34.8,11.4z"/>
			<path class="st1" d="M34.8,11.4c0,2.7-5.5,4.9-12.3,4.9c-6.8,0-12.3-2.2-12.3-4.9c0-2.7,5.5-4.9,12.3-4.9
				C29.3,6.5,34.8,8.7,34.8,11.4z"/>
		</g>
		<line class="st2" x1="21.6" y1="20.5" x2="23.4" y2="20.5"/>
	</g>
</g>
</svg>
