<?xml version="1.0" encoding="utf-8"?>
<!-- Generator: Adobe Illustrator 28.0.0, SVG Export Plug-In . SVG Version: 6.00 Build 0)  -->
<svg version="1.1" id="타이틀" xmlns="http://www.w3.org/2000/svg" xmlns:xlink="http://www.w3.org/1999/xlink" x="0px" y="0px"
	 viewBox="0 0 45 45" style="enable-background:new 0 0 45 45;" xml:space="preserve">
<style type="text/css">
	.st0{fill:#F8CE00;stroke:#282828;stroke-linecap:round;stroke-linejoin:round;}
	.st1{fill:#EE5750;stroke:#282828;stroke-linecap:round;stroke-linejoin:round;}
</style>
<g>
	<g>
		<path class="st0" d="M25.8,18.4c0,1.8-1.5,3.3-3.3,3.3c-1.8,0-3.3-1.5-3.3-3.3c0-1.8,1.5-3.3,3.3-3.3
			C24.3,15.2,25.8,16.6,25.8,18.4z"/>
		<g>
			<path class="st0" d="M27.3,25c0-1.6-1.3-2.9-2.9-2.9h-3.7c-1.6,0-2.9,1.3-2.9,2.9v4.8h9.6V25z"/>
		</g>
	</g>
	<g>
		<polyline class="st1" points="9.6,29.1 9.6,22.5 9.6,16 		"/>
		<polyline class="st1" points="29.1,35.6 22.6,35.6 16.1,35.6 		"/>
		<polyline class="st1" points="35.6,16 35.6,22.5 35.6,29.1 		"/>
		<polyline class="st1" points="16.1,9.5 22.6,9.5 29.1,9.5 		"/>
		<g>
			<circle class="st1" cx="9.5" cy="9.6" r="3"/>
			<circle class="st1" cx="35.5" cy="9.6" r="3"/>
			<path class="st1" d="M12.5,35.4c0,1.7-1.3,3-3,3c-1.7,0-3-1.3-3-3c0-1.7,1.3-3,3-3C11.2,32.4,12.5,33.7,12.5,35.4z"/>
			<path class="st1" d="M38.5,35.4c0,1.7-1.3,3-3,3c-1.7,0-3-1.3-3-3c0-1.7,1.3-3,3-3C37.2,32.4,38.5,33.7,38.5,35.4z"/>
		</g>
	</g>
</g>
</svg>
