<?xml version="1.0" encoding="utf-8"?>
<!-- Generator: Adobe Illustrator 28.0.0, SVG Export Plug-In . SVG Version: 6.00 Build 0)  -->
<svg version="1.1" id="Layer_1" xmlns="http://www.w3.org/2000/svg" xmlns:xlink="http://www.w3.org/1999/xlink" x="0px" y="0px"
	 viewBox="0 0 84 84" style="enable-background:new 0 0 84 84;" xml:space="preserve">
<style type="text/css">
	.st0{fill:#FFFFFF;}
	.st1{fill:#E6E6E6;}
	.st2{fill:#F7D959;}
	.st3{fill:#333333;}
	.st4{fill:#CCCCCC;}
	.st5{fill:#43AEE8;}
</style>
<g>
	<g>
		<g>
			<g>
				<path class="st0" d="M63.5,30.1v-7.8c0-1.2-1-2.1-2.1-2.1h-44c-1.2,0-2.1,1-2.1,2.1v7.8v24h48.3V30.1z"/>
			</g>
			<g>
				<path class="st1" d="M15.2,54.1v1.7c0,1.2,1,2.1,2.1,2.1h44c1.2,0,2.1-1,2.1-2.1v-1.7H15.2z"/>
			</g>
		</g>
		<g>
			<g>
				<polygon class="st2" points="34,33.4 37,31 39.3,33.4 41.6,31 44.6,33.4 44.6,20.2 34,20.2 				"/>
				<path class="st3" d="M44.6,34.1c-0.1,0-0.3,0-0.4-0.1l-2.5-2l-1.9,1.9c-0.1,0.1-0.3,0.2-0.5,0.2c-0.2,0-0.4-0.1-0.5-0.2L37,31.9
					l-2.5,2c-0.2,0.2-0.5,0.2-0.7,0.1c-0.2-0.1-0.4-0.3-0.4-0.6V20.2c0-0.4,0.3-0.7,0.7-0.7h10.6c0.4,0,0.7,0.3,0.7,0.7v13.2
					c0,0.3-0.1,0.5-0.4,0.6C44.8,34,44.7,34.1,44.6,34.1z M37,30.4c0.2,0,0.4,0.1,0.5,0.2l1.8,1.9l1.8-1.8c0.2-0.2,0.6-0.3,0.9-0.1
					l1.9,1.5V20.9h-9.2V32l1.9-1.5C36.7,30.4,36.9,30.4,37,30.4z"/>
			</g>
		</g>
		<g>
			<path class="st3" d="M61.3,58.6h-44c-1.6,0-2.8-1.3-2.8-2.8V22.4c0-1.6,1.3-2.8,2.8-2.8h44c1.6,0,2.8,1.3,2.8,2.8v33.4
				C64.1,57.4,62.9,58.6,61.3,58.6z M17.3,20.9c-0.8,0-1.5,0.7-1.5,1.5v33.4c0,0.8,0.7,1.5,1.5,1.5h44c0.8,0,1.5-0.7,1.5-1.5V22.4
				c0-0.8-0.7-1.5-1.5-1.5H17.3z"/>
		</g>
		<g>
			<g>
				<g>
					<rect x="20.4" y="44.3" class="st4" width="5.4" height="1.3"/>
				</g>
				<g>
					<rect x="20.4" y="47" class="st4" width="5.4" height="1.3"/>
				</g>
				<g>
					<rect x="20.4" y="49.6" class="st4" width="5.4" height="1.3"/>
				</g>
			</g>
			<g>
				<rect x="27.1" y="44.3" class="st4" width="6.8" height="6.6"/>
			</g>
		</g>
	</g>
	<g>
		<g>
			<path class="st0" d="M68.8,52.5c0,6.2-5,11.2-11.2,11.2c-6.2,0-11.2-5-11.2-11.2c0-6.2,5-11.2,11.2-11.2
				C63.8,41.3,68.8,46.3,68.8,52.5z"/>
			<path class="st3" d="M57.6,64.4c-6.6,0-11.9-5.3-11.9-11.9S51,40.6,57.6,40.6s11.9,5.3,11.9,11.9S64.2,64.4,57.6,64.4z M57.6,42
				C51.7,42,47,46.7,47,52.5c0,5.8,4.7,10.6,10.6,10.6s10.6-4.7,10.6-10.6C68.1,46.7,63.4,42,57.6,42z"/>
		</g>
		<g>
			<g>
				<path class="st5" d="M63.8,50.3H51.4c-0.4,0-0.7-0.3-0.7-0.7c0-0.4,0.3-0.7,0.7-0.7h12.4c0.4,0,0.7,0.3,0.7,0.7
					C64.4,50,64.1,50.3,63.8,50.3z"/>
			</g>
			<g>
				<path class="st5" d="M63.8,56.1H51.4c-0.4,0-0.7-0.3-0.7-0.7c0-0.4,0.3-0.7,0.7-0.7h12.4c0.4,0,0.7,0.3,0.7,0.7
					C64.4,55.8,64.1,56.1,63.8,56.1z"/>
			</g>
			<g>
				<g>
					<path class="st5" d="M63.8,50.3c-0.2,0-0.3-0.1-0.5-0.2l-2.6-2.6c-0.3-0.3-0.3-0.7,0-1c0.3-0.3,0.7-0.3,1,0l2.6,2.6
						c0.3,0.3,0.3,0.7,0,1C64.1,50.3,63.9,50.3,63.8,50.3z"/>
				</g>
				<g>
					<path class="st5" d="M61.2,53c-0.2,0-0.3-0.1-0.5-0.2c-0.3-0.3-0.3-0.7,0-1l2.6-2.6c0.3-0.3,0.7-0.3,1,0c0.3,0.3,0.3,0.7,0,1
						l-2.6,2.6C61.5,52.9,61.3,53,61.2,53z"/>
				</g>
			</g>
			<g>
				<g>
					<path class="st5" d="M54,58.7c-0.2,0-0.3-0.1-0.5-0.2l-2.6-2.6c-0.3-0.3-0.3-0.7,0-1c0.3-0.3,0.7-0.3,1,0l2.6,2.6
						c0.3,0.3,0.3,0.7,0,1C54.3,58.6,54.2,58.7,54,58.7z"/>
				</g>
				<g>
					<path class="st5" d="M51.4,56.1c-0.2,0-0.3-0.1-0.5-0.2c-0.3-0.3-0.3-0.7,0-1l2.6-2.6c0.3-0.3,0.7-0.3,1,0c0.3,0.3,0.3,0.7,0,1
						l-2.6,2.6C51.7,56,51.6,56.1,51.4,56.1z"/>
				</g>
			</g>
		</g>
	</g>
</g>
</svg>
