<?xml version="1.0" encoding="utf-8"?>
<!-- Generator: Adobe Illustrator 28.0.0, SVG Export Plug-In . SVG Version: 6.00 Build 0)  -->
<svg version="1.1" id="타이틀" xmlns="http://www.w3.org/2000/svg" xmlns:xlink="http://www.w3.org/1999/xlink" x="0px" y="0px"
	 viewBox="0 0 45 45" style="enable-background:new 0 0 45 45;" xml:space="preserve">
<style type="text/css">
	.st0{fill:#F8CE00;stroke:#282828;stroke-linecap:round;stroke-linejoin:round;}
	.st1{fill:#C6EEEC;stroke:#282828;stroke-linecap:round;stroke-linejoin:round;}
	.st2{fill:none;stroke:#282828;stroke-linecap:round;stroke-linejoin:round;}
</style>
<g>
	<g>
		<path class="st0" d="M31.6,15.8C31.6,15.8,31.6,15.8,31.6,15.8c0-5-4.1-9.1-9.1-9.1c-5,0-9.1,4.1-9.1,9.1c0,0,0,0,0,0
			c-3.9,0.2-6.9,3.4-6.9,7.3c0,4.1,3.3,7.3,7.3,7.3h17.3c4.1,0,7.3-3.3,7.3-7.3C38.5,19.2,35.4,16,31.6,15.8z"/>
		<rect x="15" y="23" class="st1" width="15" height="15.3"/>
	</g>
	<line class="st2" x1="20.7" y1="29.5" x2="24.3" y2="29.5"/>
</g>
</svg>
