<?xml version="1.0" encoding="utf-8"?>
<!-- Generator: Adobe Illustrator 28.0.0, SVG Export Plug-In . SVG Version: 6.00 Build 0)  -->
<svg version="1.1" id="Isolation_Mode" xmlns="http://www.w3.org/2000/svg" xmlns:xlink="http://www.w3.org/1999/xlink" x="0px"
	 y="0px" viewBox="0 0 40 40" style="enable-background:new 0 0 40 40;" xml:space="preserve">
<style type="text/css">
	.st0{fill:none;stroke:#36435E;stroke-width:1.5;stroke-linecap:round;stroke-linejoin:round;stroke-miterlimit:10;}
</style>
<g>
	<path class="st0" d="M32.5,21c0,2.6-0.8,5.1-2.2,7.1c-2.3,3.3-6,5.4-10.3,5.4c-4.3,0-8.1-2.2-10.3-5.4c-1.4-2-2.2-4.4-2.2-7.1
		c0-6.9,5.6-12.5,12.5-12.5C26.9,8.5,32.5,14.1,32.5,21z"/>
	<path class="st0" d="M23.8,16.7c0,2.1-1.7,3.8-3.8,3.8c-2.1,0-3.8-1.7-3.8-3.8c0-2.1,1.7-3.8,3.8-3.8
		C22.1,12.9,23.8,14.6,23.8,16.7z"/>
	<path class="st0" d="M30.3,28.1c-2.3,3.3-6,5.4-10.3,5.4c-4.3,0-8.1-2.2-10.3-5.4c0.7-2.8,3.2-4.8,6.2-4.8h8.2
		C27.1,23.2,29.6,25.3,30.3,28.1z"/>
</g>
</svg>
