<?xml version="1.0" encoding="utf-8"?>
<!-- Generator: Adobe Illustrator 28.0.0, SVG Export Plug-In . SVG Version: 6.00 Build 0)  -->
<svg version="1.1" id="Layer_1" xmlns="http://www.w3.org/2000/svg" xmlns:xlink="http://www.w3.org/1999/xlink" x="0px" y="0px"
	 viewBox="0 0 84 84" style="enable-background:new 0 0 84 84;" xml:space="preserve">
<style type="text/css">
	.st0{fill:#FFFFFF;}
	.st1{fill:#333333;}
	.st2{fill:#F7D959;}
	.st3{fill:#CCCCCC;}
	.st4{fill:#F46974;}
</style>
<g>
	<g>
		<g>
			<path class="st0" d="M62,63.9V21.4c0-1.3-1.1-2.4-2.4-2.4H24.4c-1.3,0-2.4,1.1-2.4,2.4v42.5c0,1.3,1.1,2.4,2.4,2.4h35.2
				C60.9,66.3,62,65.2,62,63.9z"/>
			<path class="st1" d="M59.6,67H24.4c-1.7,0-3.1-1.4-3.1-3.1V21.4c0-1.7,1.4-3.1,3.1-3.1h35.2c1.7,0,3.1,1.4,3.1,3.1v42.5
				C62.7,65.6,61.3,67,59.6,67z M24.4,19.7c-0.9,0-1.7,0.7-1.7,1.7v42.5c0,0.9,0.7,1.7,1.7,1.7h35.2c0.9,0,1.7-0.7,1.7-1.7V21.4
				c0-0.9-0.7-1.7-1.7-1.7H24.4z"/>
		</g>
		<g>
			<rect x="27.3" y="24.5" class="st2" width="11.8" height="1.8"/>
		</g>
		<g>
			<rect x="27.3" y="29.8" class="st3" width="14" height="0.9"/>
		</g>
		<g>
			<rect x="27.3" y="32.3" class="st3" width="17.3" height="0.9"/>
		</g>
		<g>
			<rect x="27.3" y="34.9" class="st3" width="29.3" height="0.9"/>
		</g>
		<g>
			<rect x="27.3" y="37.5" class="st3" width="29.3" height="0.9"/>
		</g>
		<g>
			<rect x="27.3" y="40" class="st3" width="29.3" height="0.9"/>
		</g>
		<g>
			<rect x="27.3" y="42.6" class="st3" width="29.3" height="0.9"/>
		</g>
		<g>
			<rect x="27.3" y="45.1" class="st3" width="29.3" height="0.9"/>
		</g>
		<g>
			<rect x="27.3" y="47.7" class="st3" width="9.6" height="0.9"/>
		</g>
		<g>
			<rect x="47" y="56.7" class="st3" width="9.6" height="0.9"/>
		</g>
		<g>
			<rect x="27.3" y="59.1" class="st3" width="29.3" height="0.9"/>
		</g>
		<g>
			<g>
				<path class="st4" d="M48.9,24.8c0.2-0.5,0.6-0.7,1-0.7c0.5,0,0.8,0.2,1,0.7l2.2,5.6c0,0.1,0,0.2,0,0.3c0,0.5-0.5,0.7-1,0.7
					c-0.4,0-0.7-0.2-0.8-0.6l-0.3-1h-2.2l-0.3,1c-0.1,0.4-0.5,0.6-0.8,0.6c-0.5,0-0.9-0.3-0.9-0.8c0-0.1,0-0.2,0.1-0.3L48.9,24.8z
					 M49.2,28.4h1.3l-0.6-2L49.2,28.4z"/>
			</g>
			<g>
				<path class="st4" d="M55.4,28.3h-1.1c-0.4,0-0.6-0.4-0.6-0.7c0-0.4,0.2-0.7,0.6-0.7h1.1v-1.1c0-0.5,0.4-0.7,0.8-0.7
					s0.8,0.2,0.8,0.7v1.1h1.1c0.4,0,0.6,0.4,0.6,0.7c0,0.4-0.2,0.7-0.6,0.7h-1.1v1.1c0,0.5-0.4,0.7-0.8,0.7s-0.8-0.2-0.8-0.7V28.3z"
					/>
			</g>
		</g>
	</g>
	<g>
		<polygon class="st4" points="33.7,29.2 30.2,26.9 26.8,29.2 26.8,17.7 33.7,17.7 		"/>
		<path class="st1" d="M33.7,30c-0.1,0-0.3,0-0.4-0.1l-3.1-2l-3.1,2c-0.2,0.1-0.5,0.2-0.7,0c-0.2-0.1-0.4-0.4-0.4-0.6V17.7
			c0-0.4,0.3-0.7,0.7-0.7h7c0.4,0,0.7,0.3,0.7,0.7v11.5c0,0.3-0.1,0.5-0.4,0.6C34,29.9,33.8,30,33.7,30z M30.2,26.2
			c0.1,0,0.3,0,0.4,0.1l2.4,1.6v-9.5h-5.5v9.5l2.4-1.6C30,26.3,30.1,26.2,30.2,26.2z"/>
	</g>
</g>
</svg>
