<?xml version="1.0" encoding="utf-8"?>
<!-- Generator: Adobe Illustrator 28.0.0, SVG Export Plug-In . SVG Version: 6.00 Build 0)  -->
<svg version="1.1" id="Layer_1" xmlns="http://www.w3.org/2000/svg" xmlns:xlink="http://www.w3.org/1999/xlink" x="0px" y="0px"
	 viewBox="0 0 85 85" style="enable-background:new 0 0 85 85;" xml:space="preserve">
<style type="text/css">
	.st0{display:none;}
	.st1{display:inline;fill:none;stroke:#050505;stroke-linecap:round;stroke-linejoin:round;}
	.st2{display:inline;fill:none;stroke:#010101;stroke-linecap:round;stroke-linejoin:round;}
	.st3{fill:none;stroke:#040404;stroke-linecap:round;stroke-linejoin:round;}
</style>
<g class="st0">
	<polygon class="st1" points="42.2,6.5 0.9,78 42.2,46.2 	"/>
	<polygon class="st1" points="83.5,78 42.2,6.5 42.2,46.2 	"/>
	<polygon class="st1" points="0.9,78 42.2,78 42.2,46.2 	"/>
	<polygon class="st1" points="42.2,46.2 42.2,78 83.5,78 	"/>
</g>
<g class="st0">
	<polygon class="st2" points="35.2,2.6 0.9,22.4 0.9,22.4 35.2,42.2 	"/>
	<polygon class="st2" points="69.4,62 69.5,62 69.5,22.4 35.2,2.6 35.2,42.2 	"/>
	<polygon class="st2" points="69.4,62 69.5,62 69.5,62 69.5,62 	"/>
	<polygon class="st2" points="35.2,62 69.4,62 35.2,42.2 	"/>
	<polygon class="st2" points="35.2,62 35.2,81.8 69.5,62 69.4,62 	"/>
	<polygon class="st2" points="35.2,42.2 0.9,22.4 0.9,62 35.2,62 	"/>
	<polygon class="st2" points="0.9,62 0.9,62 35.2,81.8 35.2,62 	"/>
</g>
<g>
	<g>
		<path class="st3" d="M28.1,18.7c0,3.5-2.9,6.3-6.3,6.3c-3.5,0-6.3-2.9-6.3-6.3c0-3.5,2.9-6.3,6.3-6.3
			C25.3,12.4,28.1,15.3,28.1,18.7z"/>
		<path class="st3" d="M48.8,18.7c0,3.5-2.9,6.3-6.3,6.3c-3.5,0-6.3-2.9-6.3-6.3c0-3.5,2.9-6.3,6.3-6.3C46,12.4,48.8,15.3,48.8,18.7
			z"/>
		<path class="st3" d="M69.4,18.7c0,3.5-2.9,6.3-6.3,6.3c-3.5,0-6.3-2.9-6.3-6.3c0-3.5,2.9-6.3,6.3-6.3
			C66.6,12.4,69.4,15.3,69.4,18.7z"/>
	</g>
	<g>
		<path class="st3" d="M28.1,42.6c0,3.5-2.9,6.3-6.3,6.3c-3.5,0-6.3-2.9-6.3-6.3c0-3.5,2.9-6.3,6.3-6.3
			C25.3,36.3,28.1,39.2,28.1,42.6z"/>
		<path class="st3" d="M48.8,42.6c0,3.5-2.9,6.3-6.3,6.3c-3.5,0-6.3-2.9-6.3-6.3c0-3.5,2.9-6.3,6.3-6.3C46,36.3,48.8,39.2,48.8,42.6
			z"/>
		<path class="st3" d="M69.4,42.6c0,3.5-2.9,6.3-6.3,6.3c-3.5,0-6.3-2.9-6.3-6.3c0-3.5,2.9-6.3,6.3-6.3
			C66.6,36.3,69.4,39.2,69.4,42.6z"/>
	</g>
	<g>
		<path class="st3" d="M28.1,66.5c0,3.5-2.9,6.3-6.3,6.3c-3.5,0-6.3-2.9-6.3-6.3c0-3.5,2.9-6.3,6.3-6.3C25.3,60.2,28.1,63,28.1,66.5
			z"/>
		<path class="st3" d="M48.8,66.5c0,3.5-2.9,6.3-6.3,6.3c-3.5,0-6.3-2.9-6.3-6.3c0-3.5,2.9-6.3,6.3-6.3C46,60.2,48.8,63,48.8,66.5z"
			/>
		<path class="st3" d="M69.4,66.5c0,3.5-2.9,6.3-6.3,6.3c-3.5,0-6.3-2.9-6.3-6.3c0-3.5,2.9-6.3,6.3-6.3C66.6,60.2,69.4,63,69.4,66.5
			z"/>
	</g>
</g>
<g class="st0">
	<polygon class="st2" points="24.3,74.9 24.4,74.9 24.4,74.8 	"/>
	<polygon class="st2" points="43.2,56.1 24.4,74.8 24.4,74.9 43.2,74.9 66.5,74.9 66.5,32.7 	"/>
	<polygon class="st2" points="24.4,51.6 24.4,74.8 66.5,32.7 66.5,9.6 	"/>
	<polygon class="st2" points="24.4,51.6 1.2,74.9 24.3,74.9 24.4,74.8 	"/>
	<polygon class="st2" points="43.2,32.9 66.5,9.6 43.3,9.6 43.2,9.7 	"/>
	<polygon class="st2" points="1.2,51.7 1.2,74.9 43.2,32.9 43.2,9.7 	"/>
	<polygon class="st2" points="1.2,9.6 1.2,51.7 43.2,9.7 43.2,9.6 	"/>
	<polygon class="st2" points="43.3,9.6 43.2,9.6 43.2,9.7 	"/>
</g>
</svg>
