<?xml version="1.0" encoding="utf-8"?>
<!-- Generator: Adobe Illustrator 28.0.0, SVG Export Plug-In . SVG Version: 6.00 Build 0)  -->
<svg version="1.1" id="Isolation_Mode" xmlns="http://www.w3.org/2000/svg" xmlns:xlink="http://www.w3.org/1999/xlink" x="0px"
	 y="0px" viewBox="0 0 40 40" style="enable-background:new 0 0 40 40;" xml:space="preserve">
<style type="text/css">
	.st0{fill:none;stroke:#36435E;stroke-width:1.5;stroke-linecap:round;stroke-linejoin:round;stroke-miterlimit:10;}
</style>
<g>
	<line class="st0" x1="16.4" y1="22.9" x2="23.6" y2="28.5"/>
	<line class="st0" x1="23.7" y1="11.3" x2="16.4" y2="17"/>
	<path class="st0" d="M17.3,20c0,2.6-2.1,4.7-4.7,4.7C10.1,24.7,8,22.6,8,20s2.1-4.7,4.7-4.7C15.2,15.3,17.3,17.4,17.3,20z"/>
	<path class="st0" d="M32,8.4c0,2.6-2.1,4.7-4.7,4.7c-2.6,0-4.7-2.1-4.7-4.7c0-2.6,2.1-4.7,4.7-4.7C29.9,3.8,32,5.8,32,8.4z"/>
	<path class="st0" d="M32,31.6c0-2.6-2.1-4.7-4.7-4.7c-2.6,0-4.7,2.1-4.7,4.7c0,2.6,2.1,4.7,4.7,4.7C29.9,36.2,32,34.2,32,31.6z"/>
</g>
</svg>
