<?xml version="1.0" encoding="utf-8"?>
<!-- Generator: Adobe Illustrator 28.0.0, SVG Export Plug-In . SVG Version: 6.00 Build 0)  -->
<svg version="1.1" id="Isolation_Mode" xmlns="http://www.w3.org/2000/svg" xmlns:xlink="http://www.w3.org/1999/xlink" x="0px"
	 y="0px" viewBox="0 0 40 40" style="enable-background:new 0 0 40 40;" xml:space="preserve">
<style type="text/css">
	.st0{fill:none;stroke:#36435E;stroke-width:1.5;stroke-linecap:round;stroke-linejoin:round;stroke-miterlimit:10;}
	.st1{fill:#FFFFFF;}
	.st2{fill:none;stroke:#36435E;stroke-linecap:round;stroke-linejoin:round;stroke-miterlimit:10;}
</style>
<g>
	<path class="st0" d="M8.5,13.6c-1.1,0-2.3,0.1-3.5,0.1v7.8V31c10,0,15-1.5,15,0.6V14.3c0-0.4,0.1-0.7-0.2-0.8"/>
	<path class="st0" d="M31.4,13.6c1.1,0,2.3,0.1,3.6,0.1v7.8V31c-10,0-15-1.5-15,0.6V14.3c0-0.1,0-0.2,0.1-0.3"/>
	<path class="st0" d="M8.7,10.4v7.8v9.6c7.1,0,11.3,1.7,11.3,3.9V14.3C20,12.1,15.8,10.4,8.7,10.4z"/>
	<path class="st1" d="M16.7,15.5c-1.2-0.4-2.8-0.7-4.7-0.9"/>
	<path class="st2" d="M16.7,15.5c-1.2-0.4-2.8-0.7-4.7-0.9"/>
	<path class="st1" d="M16.7,19.6c-1.2-0.4-2.8-0.7-4.7-0.9"/>
	<path class="st2" d="M16.7,19.6c-1.2-0.4-2.8-0.7-4.7-0.9"/>
	<path class="st1" d="M16.7,23.7c-1.2-0.4-2.8-0.7-4.7-0.9"/>
	<path class="st2" d="M16.7,23.7c-1.2-0.4-2.8-0.7-4.7-0.9"/>
	<path class="st0" d="M31.3,10.4v7.8v9.6c-7.1,0-11.3,1.7-11.3,3.9V14.3C20,12.1,24.2,10.4,31.3,10.4z"/>
	<path class="st1" d="M23.3,15.5c1.2-0.4,2.8-0.7,4.7-0.9"/>
	<path class="st2" d="M23.3,15.5c1.2-0.4,2.8-0.7,4.7-0.9"/>
	<path class="st1" d="M23.3,19.6c1.2-0.4,2.8-0.7,4.7-0.9"/>
	<path class="st2" d="M23.3,19.6c1.2-0.4,2.8-0.7,4.7-0.9"/>
	<path class="st1" d="M23.3,23.7c1.2-0.4,2.8-0.7,4.7-0.9"/>
	<path class="st2" d="M23.3,23.7c1.2-0.4,2.8-0.7,4.7-0.9"/>
</g>
</svg>
