<?xml version="1.0" encoding="utf-8"?>
<!-- Generator: Adobe Illustrator 28.0.0, SVG Export Plug-In . SVG Version: 6.00 Build 0)  -->
<svg version="1.1" id="타이틀" xmlns="http://www.w3.org/2000/svg" xmlns:xlink="http://www.w3.org/1999/xlink" x="0px" y="0px"
	 viewBox="0 0 45 45" style="enable-background:new 0 0 45 45;" xml:space="preserve">
<style type="text/css">
	.st0{fill:#6ABBEE;stroke:#282828;stroke-linecap:round;stroke-linejoin:round;}
	.st1{fill:#9CC445;stroke:#282828;stroke-linecap:round;stroke-linejoin:round;}
</style>
<g>
	<path class="st0" d="M28.7,29.8c0,3.4-2.8,6.2-6.2,6.2c-3.4,0-6.2-2.8-6.2-6.2c0-3.4,2.8-6.2,6.2-6.2
		C25.9,23.6,28.7,26.4,28.7,29.8z"/>
	<path class="st1" d="M31.9,31.4H13.1c-1.1,0-2.1-0.9-2.1-2.1v-1c0-0.9,0.5-2,1.2-2.6c1.2-1.4,2.6-3.1,2.9-3.6v-3.9
		c0-4,3.3-7.3,7.3-7.3c4,0,7.3,3.3,7.3,7.3v3.9c0.3,0.5,1.7,2.2,2.9,3.6c0.7,0.6,1.2,1.7,1.2,2.6v1C33.9,30.5,33,31.4,31.9,31.4
		L31.9,31.4z"/>
</g>
</svg>
