<?xml version="1.0" encoding="utf-8"?>
<!-- Generator: Adobe Illustrator 28.0.0, SVG Export Plug-In . SVG Version: 6.00 Build 0)  -->
<svg version="1.1" id="Isolation_Mode" xmlns="http://www.w3.org/2000/svg" xmlns:xlink="http://www.w3.org/1999/xlink" x="0px"
	 y="0px" viewBox="0 0 40 40" style="enable-background:new 0 0 40 40;" xml:space="preserve">
<style type="text/css">
	.st0{fill:none;stroke:#36435E;stroke-width:1.5;stroke-linecap:round;stroke-linejoin:round;stroke-miterlimit:10;}
	.st1{fill:#C3E0FC;}
	.st2{fill:none;stroke:#36435E;stroke-linecap:round;stroke-linejoin:round;stroke-miterlimit:10;}
</style>
<g>
	<polyline class="st0" points="24.8,8.4 30,8.4 30,35.8 10,35.8 10,8.4 15.4,8.4 	"/>
	<rect x="13.2" y="11.7" class="st0" width="13.7" height="20.3"/>
	<path class="st0" d="M22.2,8.4c0-1.2-1-2.2-2.2-2.2c-1.2,0-2.2,1-2.2,2.2h-2.4v3.3h9.1V8.4H22.2z"/>
	<line class="st1" x1="16.8" y1="16.9" x2="23.2" y2="16.9"/>
	<line class="st2" x1="16.8" y1="16.9" x2="23.2" y2="16.9"/>
	<line class="st1" x1="16.8" y1="20.4" x2="23.2" y2="20.4"/>
	<line class="st2" x1="16.8" y1="20.4" x2="23.2" y2="20.4"/>
	<line class="st1" x1="16.8" y1="23.8" x2="23.2" y2="23.8"/>
	<line class="st2" x1="16.8" y1="23.8" x2="23.2" y2="23.8"/>
	<line class="st1" x1="16.8" y1="27.3" x2="23.2" y2="27.3"/>
	<line class="st2" x1="16.8" y1="27.3" x2="23.2" y2="27.3"/>
</g>
</svg>
