<?xml version="1.0" encoding="utf-8"?>
<!-- Generator: Adobe Illustrator 28.0.0, SVG Export Plug-In . SVG Version: 6.00 Build 0)  -->
<svg version="1.1" id="타이틀" xmlns="http://www.w3.org/2000/svg" xmlns:xlink="http://www.w3.org/1999/xlink" x="0px" y="0px"
	 viewBox="0 0 45 45" style="enable-background:new 0 0 45 45;" xml:space="preserve">
<style type="text/css">
	.st0{fill:#C6EEEC;stroke:#282828;stroke-linecap:round;stroke-linejoin:round;}
	.st1{fill:#F8CE00;stroke:#282828;stroke-linecap:round;stroke-linejoin:round;}
	.st2{fill:#FFFFFF;stroke:#282828;stroke-linecap:round;stroke-linejoin:round;}
</style>
<g>
	<path class="st0" d="M38.5,35.5c0,0.9-0.8,1.7-1.7,1.7H8.2c-0.9,0-1.7-0.8-1.7-1.7V20c0-0.9,0.8-1.7,1.7-1.7h28.6
		c0.9,0,1.7,0.8,1.7,1.7V35.5z"/>
	<path class="st1" d="M13.9,7.8c-0.9,0-1.7,0.8-1.7,1.7v26c0,0.9,0.8,1.7,1.7,1.7h3.7c0.9,0,2.5,0,3.4,0h2.9c0.9,0,2.5,0,3.4,0h3.7
		c0.9,0,1.7-0.8,1.7-1.7v-26c0-0.9-0.8-1.7-1.7-1.7H13.9z"/>
	<g>
		<line class="st2" x1="19.8" y1="14.1" x2="25.2" y2="14.1"/>
		<line class="st2" x1="19.8" y1="20.4" x2="25.2" y2="20.4"/>
	</g>
</g>
</svg>
