<?xml version="1.0" encoding="utf-8"?>
<!-- Generator: Adobe Illustrator 28.0.0, SVG Export Plug-In . SVG Version: 6.00 Build 0)  -->
<svg version="1.1" id="타이틀" xmlns="http://www.w3.org/2000/svg" xmlns:xlink="http://www.w3.org/1999/xlink" x="0px" y="0px"
	 viewBox="0 0 14 17" style="enable-background:new 0 0 14 17;" xml:space="preserve">
<style type="text/css">
	.st0{fill:#FFFFFF;}
	.st1{fill:#282828;}
</style>
<g>
	<path class="st0" d="M14,8.5c0,3.9-3.1,7-7,7c-3.9,0-7-3.1-7-7s3.1-7,7-7C10.9,1.5,14,4.6,14,8.5z"/>
	<g>
		<path class="st1" d="M11.6,9.4V7.6l-1.1-0.1c-0.1-0.3-0.2-0.5-0.3-0.8l0.7-0.9L9.6,4.6L8.8,5.3C8.5,5.2,8.3,5.1,8,5L7.9,3.9H6.1
			L6,5C5.7,5.1,5.5,5.2,5.2,5.3L4.3,4.6L3.1,5.8l0.7,0.9C3.7,7,3.6,7.2,3.5,7.5L2.4,7.6v1.8l1.1,0.1c0.1,0.3,0.2,0.5,0.3,0.8
			l-0.7,0.9l1.2,1.2l0.9-0.7C5.5,11.8,5.7,11.9,6,12l0.1,1.1h1.8L8,12c0.3-0.1,0.5-0.2,0.8-0.3l0.9,0.7l1.2-1.2l-0.7-0.9
			c0.1-0.2,0.2-0.5,0.3-0.8L11.6,9.4z M7,9.8c-0.7,0-1.3-0.6-1.3-1.3c0-0.7,0.6-1.3,1.3-1.3s1.3,0.6,1.3,1.3C8.3,9.2,7.7,9.8,7,9.8z
			"/>
	</g>
</g>
</svg>
