<?xml version="1.0" encoding="utf-8"?>
<!-- Generator: Adobe Illustrator 28.0.0, SVG Export Plug-In . SVG Version: 6.00 Build 0)  -->
<svg version="1.1" id="Layer_1" xmlns="http://www.w3.org/2000/svg" xmlns:xlink="http://www.w3.org/1999/xlink" x="0px" y="0px"
	 viewBox="0 0 84 84" style="enable-background:new 0 0 84 84;" xml:space="preserve">
<style type="text/css">
	.st0{fill:#FFFFFF;}
	.st1{fill:#333333;}
	.st2{fill:#F46974;}
	.st3{fill:#43AEE8;}
</style>
<g>
	<g>
		<g>
			<g>
				<path class="st0" d="M51.4,20.6v4.5h2.5v32.1l0,0c0,3.4,2.8,6.2,6.2,6.2c3.4,0,6.2-2.8,6.2-6.2l0,0V25.1h2.5v-4.5H51.4z"/>
				<path class="st1" d="M60.1,64.1c-3.8,0-6.9-3.1-6.9-6.9V25.8h-1.8c-0.4,0-0.7-0.3-0.7-0.7v-4.5c0-0.4,0.3-0.7,0.7-0.7h17.4
					c0.4,0,0.7,0.3,0.7,0.7v4.5c0,0.4-0.3,0.7-0.7,0.7H67v31.4C67,61,63.9,64.1,60.1,64.1z M52.1,24.4h1.8c0.4,0,0.7,0.3,0.7,0.7
					v32.1c0,3,2.5,5.5,5.5,5.5s5.5-2.5,5.5-5.5V25.1c0-0.4,0.3-0.7,0.7-0.7h1.8v-3.1h-16V24.4z"/>
			</g>
			<g>
				<path class="st0" d="M57.4,24.8v32c0,1.5,1.2,2.7,2.7,2.7s2.7-1.2,2.7-2.7v-32H57.4z"/>
			</g>
			<g>
				<g>
					<path class="st2" d="M57.4,43.5v13.3c0,1.5,1.2,2.7,2.7,2.7s2.7-1.2,2.7-2.7V43.5H57.4z"/>
				</g>
			</g>
		</g>
		<g>
			<g>
				<line class="st0" x1="61.6" y1="30.5" x2="63.6" y2="30.5"/>
				<path class="st1" d="M63.6,31.2h-2c-0.4,0-0.7-0.3-0.7-0.7c0-0.4,0.3-0.7,0.7-0.7h2c0.4,0,0.7,0.3,0.7,0.7
					C64.3,30.9,63.9,31.2,63.6,31.2z"/>
			</g>
			<g>
				<line class="st0" x1="61.6" y1="34.9" x2="63.6" y2="34.9"/>
				<path class="st1" d="M63.6,35.6h-2c-0.4,0-0.7-0.3-0.7-0.7c0-0.4,0.3-0.7,0.7-0.7h2c0.4,0,0.7,0.3,0.7,0.7
					C64.3,35.3,63.9,35.6,63.6,35.6z"/>
			</g>
			<g>
				<line class="st0" x1="61.6" y1="39.4" x2="63.6" y2="39.4"/>
				<path class="st1" d="M63.6,40h-2c-0.4,0-0.7-0.3-0.7-0.7s0.3-0.7,0.7-0.7h2c0.4,0,0.7,0.3,0.7,0.7S63.9,40,63.6,40z"/>
			</g>
			<g>
				<line class="st0" x1="61.6" y1="43.8" x2="63.6" y2="43.8"/>
				<path class="st1" d="M63.6,44.5h-2c-0.4,0-0.7-0.3-0.7-0.7c0-0.4,0.3-0.7,0.7-0.7h2c0.4,0,0.7,0.3,0.7,0.7
					C64.3,44.2,63.9,44.5,63.6,44.5z"/>
			</g>
		</g>
	</g>
	<g>
		<g>
			<g>
				<path class="st0" d="M38.2,31.1v-6h2.5v-4.5H23.2v4.5h2.5v6c-6.2,2.5-10.6,8.5-10.6,15.6c0,9.3,7.5,16.8,16.8,16.8
					c9.3,0,16.8-7.5,16.8-16.8C48.7,39.6,44.3,33.6,38.2,31.1z"/>
				<path class="st1" d="M32,64.1c-9.6,0-17.5-7.8-17.5-17.4c0-7,4.1-13.3,10.6-16v-4.8h-1.8c-0.4,0-0.7-0.3-0.7-0.7v-4.5
					c0-0.4,0.3-0.7,0.7-0.7h17.4c0.4,0,0.7,0.3,0.7,0.7v4.5c0,0.4-0.3,0.7-0.7,0.7h-1.8v4.8c6.4,2.8,10.6,9,10.6,16
					C49.4,56.3,41.6,64.1,32,64.1z M23.9,24.4h1.8c0.4,0,0.7,0.3,0.7,0.7v6c0,0.3-0.2,0.5-0.4,0.6c-6.1,2.5-10.1,8.3-10.1,14.9
					c0,8.9,7.2,16.1,16.1,16.1c8.9,0,16.1-7.2,16.1-16.1c0-6.6-4-12.5-10.1-14.9c-0.3-0.1-0.4-0.4-0.4-0.6v-6c0-0.4,0.3-0.7,0.7-0.7
					H40v-3.1h-16V24.4z"/>
			</g>
			<g>
				<path class="st0" d="M34.6,34.2v-9.4h-5.3v9.4c-5.8,1.2-10.1,6.4-10.1,12.5c0,7.1,5.7,12.8,12.8,12.8c7.1,0,12.8-5.7,12.8-12.8
					C44.8,40.5,40.4,35.4,34.6,34.2z"/>
			</g>
			<g>
				<g>
					<path class="st3" d="M33.2,43.6c-3-1.3-5.1-0.7-8.1,0.7c-1.5,0.8-2.3,1.6-4,1.4c-0.7,0-1.2-0.2-1.8-0.5c-0.1,0.5-0.1,1-0.1,1.5
						c0,7.1,5.7,12.8,12.8,12.8c7.1,0,12.8-5.7,12.8-12.8c0-1-0.1-2-0.4-2.9c-1.1,0.3-2.1,0.8-3.2,1.1
						C38.7,45.4,35.4,44.7,33.2,43.6z"/>
				</g>
			</g>
		</g>
		<g>
			<g>
				<line class="st0" x1="41" y1="39.9" x2="43" y2="39.9"/>
				<path class="st1" d="M43,40.6h-2c-0.4,0-0.7-0.3-0.7-0.7c0-0.4,0.3-0.7,0.7-0.7h2c0.4,0,0.7,0.3,0.7,0.7
					C43.7,40.3,43.4,40.6,43,40.6z"/>
			</g>
			<g>
				<line class="st0" x1="41" y1="44.3" x2="43" y2="44.3"/>
				<path class="st1" d="M43,45h-2c-0.4,0-0.7-0.3-0.7-0.7c0-0.4,0.3-0.7,0.7-0.7h2c0.4,0,0.7,0.3,0.7,0.7C43.7,44.7,43.4,45,43,45z
					"/>
			</g>
			<g>
				<line class="st0" x1="41" y1="48.8" x2="43" y2="48.8"/>
				<path class="st1" d="M43,49.4h-2c-0.4,0-0.7-0.3-0.7-0.7c0-0.4,0.3-0.7,0.7-0.7h2c0.4,0,0.7,0.3,0.7,0.7
					C43.7,49.1,43.4,49.4,43,49.4z"/>
			</g>
			<g>
				<line class="st0" x1="41" y1="53.2" x2="43" y2="53.2"/>
				<path class="st1" d="M43,53.9h-2c-0.4,0-0.7-0.3-0.7-0.7c0-0.4,0.3-0.7,0.7-0.7h2c0.4,0,0.7,0.3,0.7,0.7
					C43.7,53.6,43.4,53.9,43,53.9z"/>
			</g>
		</g>
	</g>
</g>
</svg>
