<?xml version="1.0" encoding="utf-8"?>
<!-- Generator: Adobe Illustrator 28.0.0, SVG Export Plug-In . SVG Version: 6.00 Build 0)  -->
<svg version="1.1" id="Layer_1" xmlns="http://www.w3.org/2000/svg" xmlns:xlink="http://www.w3.org/1999/xlink" x="0px" y="0px"
	 viewBox="0 0 84 84" style="enable-background:new 0 0 84 84;" xml:space="preserve">
<style type="text/css">
	.st0{fill:#FFFFFF;}
	.st1{fill:#333333;}
	.st2{fill:#F46974;}
	.st3{fill:#43AEE8;}
	.st4{fill:#CCCCCC;}
</style>
<g>
	<g>
		<path class="st0" d="M26.2,64.2c0,1.5,1.2,2.6,2.6,2.6h27.3c1.5,0,2.6-1.2,2.6-2.6v-5.2H26.2V64.2z"/>
		<path class="st1" d="M56.1,67.5H28.9c-1.8,0-3.3-1.5-3.3-3.3v-5.8h33.8v5.8C59.4,66,57.9,67.5,56.1,67.5z M26.9,59.7v4.5
			c0,1.1,0.9,2,2,2h27.3c1.1,0,2-0.9,2-2v-4.5H26.9z"/>
	</g>
	<g>
		<path class="st0" d="M56.1,18.1H28.9c-1.5,0-2.6,1.2-2.6,2.6V25h32.5v-4.3C58.8,19.3,57.6,18.1,56.1,18.1z"/>
		<path class="st1" d="M59.4,25.7H25.6v-4.9c0-1.8,1.5-3.3,3.3-3.3h27.3c1.8,0,3.3,1.5,3.3,3.3V25.7z M26.9,24.4h31.3v-3.6
			c0-1.1-0.9-2-2-2H28.9c-1.1,0-2,0.9-2,2V24.4z"/>
	</g>
	<g>
		<rect x="26.2" y="25" class="st0" width="32.5" height="34"/>
	</g>
	<g>
		<rect x="26.2" y="43.2" class="st2" width="32.5" height="15.9"/>
	</g>
	<g>
		<path class="st1" d="M59.4,59.7H25.6V24.4h33.8V59.7z M26.9,58.4h31.3V25.7H26.9V58.4z"/>
	</g>
	<g>
		<path class="st3" d="M44.2,63c0,0.9-0.8,1.7-1.7,1.7c-0.9,0-1.7-0.8-1.7-1.7c0-0.9,0.8-1.7,1.7-1.7C43.4,61.2,44.2,62,44.2,63z"/>
	</g>
	<g>
		<path class="st4" d="M46.1,21.6c0,0.4-0.3,0.7-0.7,0.7h-5.7c-0.4,0-0.7-0.3-0.7-0.7l0,0c0-0.4,0.3-0.7,0.7-0.7h5.7
			C45.7,20.9,46.1,21.2,46.1,21.6L46.1,21.6z"/>
	</g>
	<g>
		<path class="st2" d="M49.1,32.3h-1l0.4-1.5c0.1-0.5-0.2-1.1-0.7-1.2c-0.5-0.1-1,0.2-1.2,0.7l-0.6,2h-2l-0.6-2.1
			c-0.1-0.4-0.5-0.7-0.9-0.7c-0.4,0-0.8,0.3-0.9,0.7l-0.7,2.1h-2.1l-0.6-2c-0.1-0.5-0.7-0.8-1.2-0.7c-0.5,0.1-0.8,0.7-0.7,1.2
			l0.4,1.5h-0.9c-0.5,0-1,0.4-1,1c0,0.5,0.4,1,1,1h1.4l1.4,4.4c0.3,0.5,0.5,0.7,0.9,0.7c0,0,0,0,0,0c0.4,0,0.7-0.3,0.9-0.7l1.7-4.5
			h0.3l1.6,4.4c0.3,0.6,0.5,0.7,0.9,0.7c0,0,0,0,0,0c0.4,0,0.7-0.2,0.9-0.7l1.4-4.4h1.6c0.5,0,1-0.4,1-1
			C50.1,32.8,49.6,32.3,49.1,32.3z M39.8,35.9l-0.4-1.6h1L39.8,35.9z M45.1,35.8l-0.4-1.5h0.8L45.1,35.8z"/>
	</g>
	<g>
		<path class="st0" d="M38.9,55c0,0.3-0.2,0.5-0.5,0.5h-8c-0.3,0-0.5-0.2-0.5-0.5v-8.2c0-0.3,0.2-0.5,0.5-0.5h8
			c0.3,0,0.5,0.2,0.5,0.5V55z"/>
	</g>
	<g>
		<g>
			<rect x="41" y="46.6" class="st0" width="14.1" height="1"/>
		</g>
		<g>
			<rect x="41" y="49.1" class="st0" width="14.1" height="1.1"/>
		</g>
		<g>
			<rect x="41" y="51.7" class="st0" width="14.1" height="1"/>
		</g>
		<g>
			<rect x="41" y="54.2" class="st0" width="14.1" height="1"/>
		</g>
	</g>
</g>
</svg>
