<?xml version="1.0" encoding="utf-8"?>
<!-- Generator: Adobe Illustrator 28.0.0, SVG Export Plug-In . SVG Version: 6.00 Build 0)  -->
<svg version="1.1" id="타이틀" xmlns="http://www.w3.org/2000/svg" xmlns:xlink="http://www.w3.org/1999/xlink" x="0px" y="0px"
	 viewBox="0 0 45 45" style="enable-background:new 0 0 45 45;" xml:space="preserve">
<style type="text/css">
	.st0{fill:#56C1A7;stroke:#282828;stroke-linecap:round;stroke-linejoin:round;}
	.st1{fill:#F8CE00;stroke:#282828;stroke-linecap:round;stroke-linejoin:round;}
	.st2{fill:#6ABBEE;stroke:#282828;stroke-linecap:round;stroke-linejoin:round;}
</style>
<g>
	<path class="st0" d="M33.4,21.6c0,1.1-0.9,1.9-1.9,1.9H13.5c-1.1,0-1.9-0.9-1.9-1.9v-7.4c0-1.1,0.9-1.9,1.9-1.9h17.9
		c1.1,0,1.9,0.9,1.9,1.9V21.6z"/>
	<path class="st1" d="M30,17.9c0,1.2-1,2.2-2.2,2.2c-1.2,0-2.2-1-2.2-2.2c0-1.2,1-2.2,2.2-2.2C29,15.7,30,16.7,30,17.9z"/>
	<path class="st2" d="M33.4,32.8c0,1.1-0.9,1.9-1.9,1.9H13.5c-1.1,0-1.9-0.9-1.9-1.9v-7.4c0-1.1,0.9-1.9,1.9-1.9h17.9
		c1.1,0,1.9,0.9,1.9,1.9V32.8z"/>
	<path class="st1" d="M30,29.1c0,1.2-1,2.2-2.2,2.2c-1.2,0-2.2-1-2.2-2.2c0-1.2,1-2.2,2.2-2.2C29,26.9,30,27.9,30,29.1z"/>
</g>
</svg>
