<?xml version="1.0" encoding="utf-8"?>
<!-- Generator: Adobe Illustrator 28.0.0, SVG Export Plug-In . SVG Version: 6.00 Build 0)  -->
<svg version="1.1" id="타이틀" xmlns="http://www.w3.org/2000/svg" xmlns:xlink="http://www.w3.org/1999/xlink" x="0px" y="0px"
	 viewBox="0 0 14 17" style="enable-background:new 0 0 14 17;" xml:space="preserve">
<style type="text/css">
	.st0{fill:#FFFFFF;}
	.st1{fill:#F8CE00;stroke:#282828;stroke-linecap:round;stroke-linejoin:round;}
	.st2{fill:#282828;}
	.st3{fill:none;stroke:#282828;stroke-linecap:round;stroke-linejoin:round;}
</style>
<g>
	<path class="st0" d="M11,9.7c-0.3,0-0.5-0.2-0.5-0.5V4.8c0-1.9-1.6-3.5-3.5-3.5c-1.9,0-3.5,1.6-3.5,3.5v4.3c0,0.3-0.2,0.5-0.5,0.5
		S2.5,9.5,2.5,9.2V4.8c0-2.5,2-4.5,4.5-4.5c2.5,0,4.5,2,4.5,4.5v4.3C11.5,9.5,11.3,9.7,11,9.7z"/>
	<path class="st1" d="M7,7.4"/>
	<circle class="st0" cx="7" cy="10.7" r="6"/>
	<g>
		<path class="st2" d="M8.4,9.3c0,0.7-0.6,1.4-1.4,1.4c-0.8,0-1.4-0.6-1.4-1.4C5.6,8.6,6.2,8,7,8C7.7,8,8.4,8.6,8.4,9.3z"/>
		<line class="st3" x1="7" y1="10.7" x2="7" y2="13.7"/>
	</g>
</g>
</svg>
