<?xml version="1.0" encoding="utf-8"?>
<!-- Generator: Adobe Illustrator 28.0.0, SVG Export Plug-In . SVG Version: 6.00 Build 0)  -->
<svg version="1.1" id="Layer_1" xmlns="http://www.w3.org/2000/svg" xmlns:xlink="http://www.w3.org/1999/xlink" x="0px" y="0px"
	 viewBox="0 0 84 84" style="enable-background:new 0 0 84 84;" xml:space="preserve">
<style type="text/css">
	.st0{fill:#FFFFFF;}
	.st1{fill:#333333;}
	.st2{fill:#43AEE8;}
	.st3{fill:#CCCCCC;}
	.st4{fill:#F46974;}
	.st5{fill:#F7D959;}
	.st6{fill:#356CC2;}
</style>
<g>
	<g>
		<g>
			<g>
				<path class="st0" d="M15.2,61.3c0,1.5,1.2,2.7,2.7,2.7h48.3c1.5,0,2.7-1.2,2.7-2.7v-5.2H15.2V61.3z"/>
				<path class="st1" d="M66.1,64.6H17.9c-1.9,0-3.4-1.5-3.4-3.4v-5.9h55v5.9C69.5,63.1,68,64.6,66.1,64.6z M15.9,56.8v4.5
					c0,1.1,0.9,2,2,2h48.3c1.1,0,2-0.9,2-2v-4.5H15.9z"/>
			</g>
			<g>
				<path class="st0" d="M66.1,20.1H17.9c-1.5,0-2.7,1.2-2.7,2.7V27h53.6v-4.3C68.8,21.2,67.6,20.1,66.1,20.1z"/>
				<path class="st1" d="M69.5,27.7h-55v-5c0-1.9,1.5-3.4,3.4-3.4h48.3c1.9,0,3.4,1.5,3.4,3.4V27.7z M15.9,26.3h52.2v-3.6
					c0-1.1-0.9-2-2-2H17.9c-1.1,0-2,0.9-2,2V26.3z"/>
			</g>
			<g>
				<rect x="15.2" y="27" class="st0" width="53.6" height="29.1"/>
			</g>
			<g>
				<path class="st1" d="M69.5,56.8h-55V26.3h55V56.8z M15.9,55.4h52.2V27.7H15.9V55.4z"/>
			</g>
		</g>
		<g>
			<path class="st2" d="M43.7,60c0,1-0.8,1.7-1.7,1.7c-1,0-1.7-0.8-1.7-1.7c0-1,0.8-1.7,1.7-1.7C43,58.3,43.7,59.1,43.7,60z"/>
		</g>
		<g>
			<path class="st3" d="M45.6,23.5c0,0.4-0.3,0.7-0.7,0.7h-5.8c-0.4,0-0.7-0.3-0.7-0.7l0,0c0-0.4,0.3-0.7,0.7-0.7h5.8
				C45.3,22.8,45.6,23.1,45.6,23.5L45.6,23.5z"/>
		</g>
	</g>
	<g>
		<g>
			<rect x="45.8" y="45" class="st4" width="17.9" height="6.3"/>
		</g>
	</g>
	<g>
		<g>
			<g>
				<rect x="45.8" y="35" class="st5" width="17.8" height="1"/>
			</g>
			<g>
				<rect x="45.8" y="37.4" class="st5" width="17.8" height="1"/>
			</g>
			<g>
				<rect x="45.8" y="39.7" class="st5" width="15.2" height="1"/>
			</g>
		</g>
		<g>
			<rect x="45.8" y="32.6" class="st4" width="2.3" height="1"/>
		</g>
		<g>
			<rect x="50.5" y="32.6" class="st5" width="13.1" height="1"/>
		</g>
		<g>
			<rect x="45.8" y="42.1" class="st4" width="2.3" height="1"/>
		</g>
		<g>
			<rect x="50.5" y="42.1" class="st5" width="13.1" height="1"/>
		</g>
	</g>
	<g>
		<g>
			<path class="st6" d="M31,48.2c-3.7,0-6.7-3-6.7-6.7c0-3.7,3-6.7,6.7-6.7c3.7,0,6.7,3,6.7,6.7C37.7,45.2,34.7,48.2,31,48.2z"/>
			<path class="st6" d="M31,48.5c-3.8,0-6.9-3.1-6.9-6.9c0-3.8,3.1-6.9,6.9-6.9c3.8,0,6.9,3.1,6.9,6.9C37.9,45.4,34.8,48.5,31,48.5z
				 M31,35.1c-3.5,0-6.4,2.9-6.4,6.4c0,3.5,2.9,6.4,6.4,6.4c3.5,0,6.4-2.9,6.4-6.4C37.4,38,34.5,35.1,31,35.1z"/>
		</g>
		<g>
			<g>
				<path class="st0" d="M30.1,51.7c0.3,0,0.6,0,0.9,0c0.3,0,0.6,0,0.9,0l1.3-1.8c0.3-0.1,0.7-0.2,1-0.3l2.1,0.7
					c0.5-0.3,1-0.7,1.4-1l0-2.2c0.2-0.3,0.4-0.6,0.6-0.8l2.1-0.6c0.2-0.5,0.4-1.1,0.6-1.7l-1.3-1.8c0-0.2,0-0.3,0-0.5
					c0-0.2,0-0.4,0-0.5l1.3-1.8c-0.1-0.6-0.3-1.2-0.6-1.7L38.2,37c-0.2-0.3-0.4-0.6-0.6-0.8l0-2.2c-0.4-0.4-0.9-0.7-1.4-1l-2.1,0.7
					c-0.3-0.1-0.7-0.2-1-0.3l-1.3-1.8c-0.3,0-0.6,0-0.9,0s-0.6,0-0.9,0l-1.3,1.8c-0.3,0.1-0.7,0.2-1,0.3l-2.1-0.7
					c-0.5,0.3-1,0.7-1.4,1l0,2.2c-0.2,0.3-0.4,0.6-0.6,0.8l-2.1,0.6c-0.2,0.5-0.4,1.1-0.6,1.7l1.3,1.8c0,0.2,0,0.3,0,0.5
					c0,0.2,0,0.3,0,0.5l-1.3,1.8c0.1,0.6,0.3,1.2,0.6,1.7l2.1,0.6c0.2,0.3,0.4,0.6,0.6,0.8l0,2.2c0.4,0.4,0.9,0.7,1.4,1l2.1-0.7
					c0.3,0.1,0.7,0.2,1,0.3L30.1,51.7z M26,41.6c0-2.8,2.2-5,5-5c2.8,0,5,2.2,5,5c0,2.8-2.2,5-5,5C28.2,46.6,26,44.4,26,41.6z"/>
			</g>
			<g>
				<path class="st1" d="M31,52c-0.3,0-0.6,0-0.9,0c-0.1,0-0.2-0.1-0.2-0.1l-1.2-1.7c-0.3-0.1-0.6-0.2-0.8-0.3l-2,0.7
					c-0.1,0-0.2,0-0.2,0c-0.5-0.3-1-0.7-1.5-1.1C24,49.4,24,49.3,24,49.3l0-2.1c-0.2-0.2-0.4-0.5-0.5-0.7l-2-0.6
					c-0.1,0-0.1-0.1-0.2-0.2c-0.2-0.6-0.4-1.1-0.6-1.7c0-0.1,0-0.2,0-0.2l1.3-1.7c0-0.2,0-0.3,0-0.4s0-0.3,0-0.4l-1.3-1.7
					c0-0.1-0.1-0.1,0-0.2c0.1-0.6,0.3-1.2,0.6-1.7c0-0.1,0.1-0.1,0.2-0.2l2-0.6c0.2-0.2,0.3-0.5,0.5-0.7l0-2.1c0-0.1,0-0.2,0.1-0.2
					c0.5-0.4,1-0.8,1.5-1.1c0.1,0,0.2-0.1,0.2,0l2,0.7c0.3-0.1,0.6-0.2,0.8-0.3l1.2-1.7c0-0.1,0.1-0.1,0.2-0.1
					c0.6-0.1,1.2-0.1,1.8,0c0.1,0,0.2,0,0.2,0.1l1.2,1.7c0.3,0.1,0.6,0.2,0.8,0.3l2-0.7c0.1,0,0.2,0,0.2,0c0.5,0.3,1,0.7,1.5,1.1
					c0.1,0.1,0.1,0.1,0.1,0.2l0,2.1c0.2,0.2,0.4,0.5,0.5,0.7l2,0.6c0.1,0,0.1,0.1,0.2,0.2c0.2,0.6,0.4,1.1,0.6,1.7
					c0,0.1,0,0.2,0,0.2l-1.3,1.7c0,0.1,0,0.3,0,0.4c0,0.1,0,0.3,0,0.4l1.3,1.7c0,0.1,0.1,0.1,0,0.2c-0.1,0.6-0.3,1.2-0.6,1.7
					c0,0.1-0.1,0.1-0.2,0.2l-2,0.6c-0.2,0.2-0.3,0.5-0.5,0.7l0,2.1c0,0.1,0,0.2-0.1,0.2c-0.5,0.4-1,0.8-1.5,1.1
					c-0.1,0-0.2,0.1-0.2,0l-2-0.7c-0.3,0.1-0.6,0.2-0.8,0.3l-1.2,1.7c0,0.1-0.1,0.1-0.2,0.1C31.6,52,31.3,52,31,52z M30.2,51.5
					c0.5,0,1,0,1.5,0l1.2-1.7c0-0.1,0.1-0.1,0.2-0.1c0.3-0.1,0.6-0.2,1-0.3c0.1,0,0.1,0,0.2,0l2,0.7c0.4-0.3,0.8-0.6,1.2-0.9l0-2.1
					c0-0.1,0-0.1,0.1-0.2c0.2-0.3,0.4-0.5,0.6-0.8c0-0.1,0.1-0.1,0.2-0.1l2-0.6c0.2-0.5,0.3-0.9,0.5-1.4l-1.2-1.7
					c0-0.1-0.1-0.1-0.1-0.2c0-0.2,0-0.3,0-0.5s0-0.3,0-0.5c0-0.1,0-0.1,0.1-0.2l1.2-1.7c-0.1-0.5-0.3-0.9-0.5-1.4l-2-0.6
					c-0.1,0-0.1-0.1-0.2-0.1c-0.2-0.3-0.4-0.6-0.6-0.8c0-0.1-0.1-0.1-0.1-0.2l0-2.1c-0.4-0.3-0.8-0.6-1.2-0.9l-2,0.7
					c-0.1,0-0.1,0-0.2,0c-0.3-0.1-0.6-0.2-1-0.3c-0.1,0-0.1-0.1-0.2-0.1l-1.2-1.7c-0.5,0-1,0-1.5,0L29,33.4c0,0.1-0.1,0.1-0.2,0.1
					c-0.3,0.1-0.6,0.2-1,0.3c-0.1,0-0.1,0-0.2,0l-2-0.7c-0.4,0.3-0.8,0.6-1.2,0.9l0,2.1c0,0.1,0,0.1-0.1,0.2
					c-0.2,0.3-0.4,0.5-0.6,0.8c0,0.1-0.1,0.1-0.2,0.1l-2,0.6c-0.2,0.5-0.3,0.9-0.5,1.4l1.2,1.7c0,0.1,0.1,0.1,0.1,0.2
					c0,0.2,0,0.3,0,0.5c0,0.2,0,0.3,0,0.5c0,0.1,0,0.1-0.1,0.2L21.4,44c0.1,0.5,0.3,0.9,0.5,1.4l2,0.6c0.1,0,0.1,0.1,0.2,0.1
					c0.2,0.3,0.4,0.6,0.6,0.8c0,0.1,0.1,0.1,0.1,0.2l0,2.1c0.4,0.3,0.8,0.6,1.2,0.9l2-0.7c0.1,0,0.1,0,0.2,0c0.3,0.1,0.6,0.2,1,0.3
					c0.1,0,0.1,0.1,0.2,0.1L30.2,51.5z M31,46.9c-2.9,0-5.3-2.4-5.3-5.3c0-2.9,2.4-5.3,5.3-5.3h0c2.9,0,5.3,2.4,5.3,5.3
					C36.2,44.5,33.9,46.9,31,46.9z M31,36.9c-2.6,0-4.7,2.1-4.7,4.7c0,2.6,2.1,4.7,4.7,4.7s4.7-2.1,4.7-4.7
					C35.7,39,33.6,36.9,31,36.9L31,36.9z"/>
			</g>
			<g>
				<path class="st0" d="M33.5,41.6c0-1.4-1.2-2.6-2.6-2.6c-1.4,0-2.6,1.1-2.6,2.6c0,1.4,1.2,2.6,2.6,2.6
					C32.4,44.2,33.5,43,33.5,41.6z"/>
				<path class="st1" d="M31,44.5c-1.6,0-2.8-1.3-2.8-2.8c0-1.6,1.3-2.8,2.8-2.8c1.6,0,2.8,1.3,2.8,2.8C33.8,43.2,32.5,44.5,31,44.5
					z M31,39.3c-1.3,0-2.3,1-2.3,2.3c0,1.3,1,2.3,2.3,2.3c1.3,0,2.3-1,2.3-2.3C33.2,40.3,32.2,39.3,31,39.3z"/>
			</g>
		</g>
	</g>
</g>
</svg>
