<?xml version="1.0" encoding="utf-8"?>
<!-- Generator: Adobe Illustrator 28.0.0, SVG Export Plug-In . SVG Version: 6.00 Build 0)  -->
<svg version="1.1" id="Layer_1" xmlns="http://www.w3.org/2000/svg" xmlns:xlink="http://www.w3.org/1999/xlink" x="0px" y="0px"
	 viewBox="0 0 84 84" style="enable-background:new 0 0 84 84;" xml:space="preserve">
<style type="text/css">
	.st0{fill:#FFFFFF;}
	.st1{fill:#333333;}
	.st2{fill:#43AEE8;}
	.st3{fill:#87B570;}
</style>
<g>
	<g>
		<g>
			<g>
				<g>
					<path class="st0" d="M22.4,50.3c-0.2-0.7,0.1-1.6,0.6-2.1l11.8-10.6c0.5-0.5,1.5-0.9,2.3-0.9h15.1c0.7,0,1.3,0.6,1.3,1.3v1.6
						c0,0.7-0.6,1.4-1.3,1.4L42.8,42c-0.7,0.1-1.6,0.6-2,1.2l-0.8,1.1c-0.4,0.6-0.2,1.2,0.5,1.3l12.3,2.6c0.7,0.1,1.6-0.2,2.1-0.7
						l8.1-9.6c0.5-0.5,1.4-1,2.1-1H68c0.7,0,1,0.5,0.6,1.1L56.9,57.2c-0.4,0.6-1.3,1.2-2,1.2l-28.4,2.9c-0.7,0.1-1.4-0.4-1.6-1.1
						L22.4,50.3z"/>
					<path class="st1" d="M26.3,62c-1,0-1.9-0.7-2.1-1.6l-2.5-9.9c-0.2-0.9,0.1-2.2,0.9-2.8l11.8-10.6c0.7-0.6,1.8-1,2.7-1h15.1
						c1.1,0,2,0.9,2,2v1.6c0,1.1-0.8,2-1.9,2.1l-9.3,0.9c-0.5,0.1-1.2,0.5-1.5,0.9l-0.8,1.1c-0.1,0.1-0.1,0.2-0.1,0.2
						c0,0,0.1,0.1,0.2,0.1L53,47.5c0.1,0,0.1,0,0.2,0c0.4,0,1-0.2,1.2-0.5l8.1-9.6c0.6-0.7,1.7-1.2,2.7-1.2H68
						c0.6,0,1.1,0.2,1.3,0.7c0.2,0.4,0.2,1-0.1,1.5L57.5,57.5C57,58.3,55.9,59,55,59.1L26.5,62C26.5,62,26.4,62,26.3,62z M37.1,37.4
						c-0.5,0-1.4,0.3-1.8,0.7L23.5,48.7c-0.3,0.3-0.6,1-0.4,1.4l2.5,9.9c0.1,0.4,0.5,0.6,0.9,0.6l28.4-2.9c0.5-0.1,1.2-0.5,1.5-0.9
						L68,37.7c0,0,0,0,0-0.1c0,0,0,0-0.1,0h-2.8c-0.5,0-1.3,0.4-1.6,0.7l-8.1,9.6c-0.6,0.7-1.8,1.1-2.8,0.9l-12.3-2.6
						c-0.6-0.1-1-0.5-1.2-0.9c-0.2-0.5-0.1-1,0.2-1.5l0.8-1.1c0.5-0.7,1.6-1.4,2.5-1.5l9.3-0.9c0.4,0,0.7-0.4,0.7-0.7V38
						c0-0.3-0.3-0.6-0.6-0.6H37.1z"/>
				</g>
				<g>
					<g>
						<path class="st2" d="M22.6,66.2c-0.9,0.3-1.9-0.2-2.1-1.2l-5.2-17.2c-0.3-0.9,0.2-1.9,1.2-2.1l8.2-2.5
							c0.9-0.3,1.9,0.2,2.1,1.2L32,61.6c0.3,0.9-0.2,1.9-1.2,2.1L22.6,66.2z"/>
						<path class="st1" d="M22.1,67c-1.1,0-2-0.7-2.3-1.7l-5.2-17.2c-0.4-1.3,0.3-2.6,1.6-3l8.2-2.5c0.2-0.1,0.5-0.1,0.7-0.1
							c1.1,0,2,0.7,2.3,1.7l5.2,17.2c0.2,0.6,0.1,1.3-0.2,1.8c-0.3,0.6-0.8,1-1.4,1.2l-8.2,2.5C22.6,67,22.4,67,22.1,67z M25.1,43.9
							c-0.1,0-0.2,0-0.3,0l-8.2,2.5c-0.5,0.2-0.9,0.7-0.7,1.3l5.2,17.2c0.2,0.5,0.8,0.9,1.3,0.7l8.2-2.5c0.3-0.1,0.5-0.3,0.6-0.5
							c0.1-0.2,0.2-0.5,0.1-0.8l-5.2-17.2C26,44.2,25.6,43.9,25.1,43.9z"/>
					</g>
				</g>
			</g>
		</g>
	</g>
	<g>
		<path class="st1" d="M42.6,34c-0.4,0-0.7-0.3-0.7-0.7l0-6c0-0.4,0.3-0.7,0.7-0.7c0.4,0,0.7,0.3,0.7,0.7l0,6
			C43.3,33.7,43,34,42.6,34z"/>
	</g>
	<g>
		<g>
			<path class="st3" d="M23.3,18c0,0,13.3-2.8,19.4,9.4C42.6,27.3,30.1,31.8,23.3,18z"/>
			<path class="st1" d="M37.9,28.7c-4.6,0-11-1.8-15.3-10.4c-0.1-0.2-0.1-0.4,0-0.6c0.1-0.2,0.3-0.3,0.5-0.4c0.1,0,1.4-0.3,3.4-0.3
				c4.4,0,12.3,1.3,16.7,10c0.1,0.2,0.1,0.4,0,0.6c-0.1,0.2-0.2,0.3-0.4,0.4C42.8,28,40.8,28.7,37.9,28.7z M24.3,18.5
				c4,7.3,9.6,8.8,13.6,8.8c1.6,0,2.9-0.2,3.7-0.4c-4.1-7.4-11.2-8.5-15.1-8.5C25.6,18.4,24.9,18.4,24.3,18.5z"/>
		</g>
		<g>
			<path class="st3" d="M62,18c0,0-13.3-2.8-19.4,9.4C42.6,27.3,55.2,31.8,62,18z"/>
			<path class="st1" d="M47.3,28.7C47.3,28.7,47.3,28.7,47.3,28.7c-2.8,0-4.8-0.7-4.9-0.7c-0.2-0.1-0.3-0.2-0.4-0.4
				c-0.1-0.2-0.1-0.4,0-0.6c4.4-8.7,12.4-10,16.7-10c2,0,3.4,0.3,3.4,0.3c0.2,0,0.4,0.2,0.5,0.4c0.1,0.2,0.1,0.4,0,0.6
				C58.4,26.9,51.9,28.7,47.3,28.7z M43.6,26.9c0.8,0.2,2.1,0.4,3.7,0.4h0c4.1,0,9.7-1.6,13.6-8.8c-0.5-0.1-1.3-0.1-2.2-0.1
				C54.8,18.4,47.8,19.5,43.6,26.9z"/>
		</g>
	</g>
</g>
</svg>
