<?xml version="1.0" encoding="utf-8"?>
<!-- Generator: Adobe Illustrator 28.0.0, SVG Export Plug-In . SVG Version: 6.00 Build 0)  -->
<svg version="1.1" id="타이틀" xmlns="http://www.w3.org/2000/svg" xmlns:xlink="http://www.w3.org/1999/xlink" x="0px" y="0px"
	 viewBox="0 0 45 45" style="enable-background:new 0 0 45 45;" xml:space="preserve">
<style type="text/css">
	.st0{fill:#C6EEEC;stroke:#282828;stroke-linecap:round;stroke-linejoin:round;}
	.st1{fill:#56C1A7;stroke:#282828;stroke-linecap:round;stroke-linejoin:round;}
	.st2{fill:none;stroke:#282828;stroke-linecap:round;stroke-linejoin:round;}
	.st3{fill:#F8CE00;stroke:#282828;stroke-linecap:round;stroke-linejoin:round;}
</style>
<g>
	<g>
		<path class="st0" d="M35.7,16.5c-1.1-1.1-2.6-1.8-4.3-1.8h-1.1c-1.1-3.3-4.3-5.7-7.9-5.7c-4.4,0-7.9,3.3-8.4,7.5h-1.4
			c-1.4,0-2.7,0.6-3.6,1.5c-0.9,0.9-1.5,2.2-1.5,3.6c0,1.4,0.6,2.7,1.5,3.6c0.9,0.9,2.2,1.5,3.6,1.5h18.8c1.7,0,3.2-0.7,4.3-1.8
			c1.1-1.1,1.8-2.6,1.8-4.3C37.5,19.1,36.8,17.6,35.7,16.5z"/>
		<path class="st1" d="M12.6,16.6c1.4,0,2.7,0.6,3.6,1.5"/>
		<path class="st2" d="M25.3,20.8c0-1.7,0.7-3.2,1.8-4.3c1.1-1.1,2.6-1.8,4.3-1.8"/>
	</g>
	<line class="st2" x1="22.5" y1="27.1" x2="22.5" y2="31.3"/>
	<line class="st2" x1="10.8" y1="33.6" x2="34.2" y2="33.6"/>
	<path class="st3" d="M24.9,33.6c0,1.3-1.1,2.4-2.4,2.4c-1.3,0-2.4-1.1-2.4-2.4c0-1.3,1.1-2.4,2.4-2.4
		C23.8,31.2,24.9,32.3,24.9,33.6z"/>
	<g>
		<path class="st3" d="M12.4,33.6c0,1.3-1.1,2.4-2.4,2.4c-1.3,0-2.4-1.1-2.4-2.4c0-1.3,1.1-2.4,2.4-2.4
			C11.3,31.2,12.4,32.3,12.4,33.6z"/>
		<path class="st3" d="M37.3,33.6c0,1.3-1.1,2.4-2.4,2.4c-1.3,0-2.4-1.1-2.4-2.4c0-1.3,1.1-2.4,2.4-2.4
			C36.3,31.2,37.3,32.3,37.3,33.6z"/>
	</g>
</g>
</svg>
