<?xml version="1.0" encoding="utf-8"?>
<!-- Generator: Adobe Illustrator 28.0.0, SVG Export Plug-In . SVG Version: 6.00 Build 0)  -->
<svg version="1.1" id="Isolation_Mode" xmlns="http://www.w3.org/2000/svg" xmlns:xlink="http://www.w3.org/1999/xlink" x="0px"
	 y="0px" viewBox="0 0 75 43" style="enable-background:new 0 0 75 43;" xml:space="preserve">
<style type="text/css">
	.st0{fill:#FFFFFF;}
</style>
<g>
	<g>
		<rect x="63.8" class="st0" width="10.6" height="42.5"/>
		<polygon class="st0" points="33.2,12.8 20.6,12.8 10.6,24 10.6,0 0,0 0,42.5 10.6,42.5 10.6,30.4 22.5,42.5 36.8,42.5 20.4,26.5 
					"/>
		<path class="st0" d="M38.3,31.2c0,7.2,3.9,11.7,12.5,11.7c3.6,0,6-0.3,6-0.3v-7c0,0-1.8,0.1-2.9,0c-4.4-0.5-4.8-2.9-4.8-6.8v-8.5
			H38.3V31.2z"/>
		<rect x="49.1" y="12.8" class="st0" width="10.4" height="7.4"/>
	</g>
	<polygon class="st0" points="49.1,0 49.1,20.2 30.4,20.2 	"/>
</g>
</svg>
