<?xml version="1.0" encoding="utf-8"?>
<!-- Generator: Adobe Illustrator 28.0.0, SVG Export Plug-In . SVG Version: 6.00 Build 0)  -->
<svg version="1.1" id="Layer_1" xmlns="http://www.w3.org/2000/svg" xmlns:xlink="http://www.w3.org/1999/xlink" x="0px" y="0px"
	 viewBox="0 0 267 46" style="enable-background:new 0 0 267 46;" xml:space="preserve">
<style type="text/css">
	.st0{fill:#005E9A;}
	.st1{fill:#ED1C24;}
</style>
<g>
	<g>
		<g>
			<path class="st0" d="M103.3,42.5h-1.2V31.9h1.2v5.5h0l4.4-5.5h1.4l-3.3,4l3.7,6.6h-1.3l-3.2-5.7l-1.7,2.1V42.5z"/>
			<path class="st0" d="M115.5,38.7c0,2-0.8,3.1-2.1,3.1c-1.3,0-2.1-1.1-2.1-3.1c0-2,0.8-3.1,2.1-3.1
				C114.7,35.6,115.5,36.7,115.5,38.7z M116.6,38.7c0-2.2-1.1-4-3.2-4c-2.1,0-3.2,1.8-3.2,4c0,2.2,1.1,4,3.2,4
				C115.5,42.7,116.6,40.9,116.6,38.7z"/>
			<path class="st0" d="M118.6,34.8h1.1v1.5h0c0.6-1.1,1.2-1.7,2.5-1.7v1.1c-1.3,0-2,0.9-2.5,2.5v4.3h-1.1V34.8z"/>
			<path class="st0" d="M124.5,37.9c0.1-1.4,0.8-2.4,2.1-2.4c1.2,0,1.8,1,1.8,2.4H124.5z M128.9,40.4c-0.4,0.8-1.2,1.3-2.1,1.3
				c-1.3,0-2.3-1.2-2.3-2.9h5v-0.7c0-2.5-1.3-3.5-2.9-3.5c-1.9,0-3.2,1.5-3.2,4c0,2.8,1.6,4,3.4,4c1.8,0,2.5-0.9,3-1.8L128.9,40.4z"
				/>
			<path class="st0" d="M136,40.5c-0.6,0.7-1.6,1.3-2.4,1.3c-0.6,0-1.3-0.5-1.3-1.2c0-1.1,1.2-1.8,3.7-2.2V40.5z M132.4,36.8
				c0.2-0.5,0.8-1.2,2-1.2c0.9,0,1.6,0.4,1.6,1.4v0.4c-3.4,0.6-4.7,1.5-4.7,3.2c0,1.4,1,2.1,2.2,2.1c1.2,0,2-0.6,2.6-1.2l0.1,1.1
				h1.1c-0.1-0.4-0.2-0.8-0.2-1.7V37c0-1.7-1.4-2.3-2.7-2.3c-1.5,0-2.4,0.7-2.9,1.6L132.4,36.8z"/>
			<path class="st0" d="M146.7,32.9v9.6h-1.2v-9.6h-3.2v-1h7.5v1H146.7z"/>
			<path class="st0" d="M150.5,37.9c0.1-1.4,0.8-2.4,2.1-2.4c1.2,0,1.8,1,1.8,2.4H150.5z M154.9,40.4c-0.4,0.8-1.2,1.3-2.1,1.3
				c-1.3,0-2.3-1.2-2.3-2.9h5v-0.7c0-2.5-1.3-3.5-2.9-3.5c-1.9,0-3.2,1.5-3.2,4c0,2.8,1.6,4,3.4,4c1.8,0,2.5-0.9,3-1.8L154.9,40.4z"
				/>
			<path class="st0" d="M158,40.6c0.5,0.7,1.2,1.2,2.2,1.2c1.2,0,1.7-0.6,1.7-1.3c0-2-4.6-0.9-4.5-3.7c0-1.3,1.1-2.1,2.6-2.1
				c1,0,2.1,0.6,2.6,1.4l-0.7,0.7c-0.6-0.7-1.2-1.1-2-1.1c-0.9,0-1.4,0.5-1.4,1.1c0,1.7,4.5,0.8,4.5,3.7c0,1.5-1.3,2.3-2.7,2.3
				c-1.2,0-2.4-0.5-3.1-1.5L158,40.6z"/>
			<path class="st0" d="M165.3,34.8v-2.5h1.1v2.5h1.8v0.9h-1.8v5.5c0,0.4,0.2,0.5,0.9,0.5c0.4,0,0.7,0,1-0.1v0.9
				c-0.2,0.1-0.6,0.1-1.3,0.1c-1.2,0-1.7-0.3-1.7-1.3v-5.7H164v-0.9H165.3z"/>
			<path class="st0" d="M170.5,31.9v1.3h1.1v-1.3H170.5z M170.5,42.5h1.1v-7.7h-1.1V42.5z"/>
			<path class="st0" d="M175.8,34.8v1h0c0.6-0.7,1.4-1.2,2.3-1.2c1.1,0,2.2,0.6,2.2,2.3v5.6h-1.1v-5.6c0-1-0.5-1.4-1.3-1.4
				c-0.8,0-1.7,0.7-2.2,1.2v5.8h-1.1v-7.7H175.8z"/>
			<path class="st0" d="M188.3,43.3c0,0.8-1.1,1.1-2.3,1.1c-2.1,0-2.5-0.4-2.5-1c0-0.6,0.5-1.3,2.2-1.3
				C187.5,42.2,188.3,42.6,188.3,43.3z M189.3,34.5c-0.6,0.1-1.2,0.4-1.7,0.7c-0.5-0.4-1.1-0.5-1.9-0.5c-1.6,0-2.9,1.1-2.9,2.7
				c0,0.8,0.3,1.6,1.1,2.2c-0.6,0.4-1,0.7-1,1.3c0,0.5,0.4,0.9,1,1.1c-0.8,0.4-1.3,0.8-1.3,1.6c0,1.3,1.2,1.9,3.3,1.9
				c2.4,0,3.5-1,3.5-2.1c0-1.5-1.2-2.2-4.8-2.2c-0.4,0-0.6-0.2-0.6-0.6c0-0.3,0.2-0.6,0.6-0.7c0.4,0.1,0.7,0.2,1.4,0.2
				c1.6,0,2.8-1.2,2.8-2.7c0-0.7-0.3-1.3-0.5-1.6c0.3-0.1,0.7-0.2,1.2-0.2V34.5z M187.6,37.4c0,0.9-0.6,1.7-1.8,1.7
				c-1.2,0-2-0.8-2-1.8c0-1,0.7-1.8,1.9-1.8C186.9,35.6,187.6,36.3,187.6,37.4z"/>
			<path class="st0" d="M196.6,42.5V31.9h1.2v9.6h5v1H196.6z"/>
			<path class="st0" d="M208.7,40.5c-0.6,0.7-1.6,1.3-2.4,1.3c-0.6,0-1.3-0.5-1.3-1.2c0-1.1,1.2-1.8,3.7-2.2V40.5z M205.1,36.8
				c0.2-0.5,0.8-1.2,2-1.2c0.9,0,1.6,0.4,1.6,1.4v0.4c-3.4,0.6-4.7,1.5-4.7,3.2c0,1.4,1,2.1,2.2,2.1c1.2,0,2-0.6,2.6-1.2l0.1,1.1
				h1.1c-0.1-0.4-0.2-0.8-0.2-1.7V37c0-1.7-1.4-2.3-2.7-2.3c-1.5,0-2.4,0.7-2.9,1.6L205.1,36.8z"/>
			<path class="st0" d="M213.3,36.6c0.6-0.6,1.3-1.1,1.9-1.1c1.2,0,2.2,0.8,2.2,3.2c0,2-0.8,3-2.2,3c-0.7,0-1.2-0.3-1.9-1V36.6z
				 M212.2,31.9v8.9c0,0.6,0,1.1-0.1,1.7h0.7l0.2-0.8c0.6,0.6,1.3,1,2.2,1c1.4,0,3.2-0.9,3.2-4c0-3-1.8-4-3.1-4
				c-0.7,0-1.4,0.4-2,0.9l-0.1,0v-3.6H212.2z"/>
			<path class="st0" d="M225.4,38.7c0,2-0.8,3.1-2.1,3.1c-1.3,0-2.1-1.1-2.1-3.1c0-2,0.8-3.1,2.1-3.1
				C224.6,35.6,225.4,36.7,225.4,38.7z M226.5,38.7c0-2.2-1.1-4-3.2-4c-2.1,0-3.2,1.8-3.2,4c0,2.2,1.1,4,3.2,4
				C225.4,42.7,226.5,40.9,226.5,38.7z"/>
			<path class="st0" d="M228.5,34.8h1.1v1.5h0c0.6-1.1,1.2-1.7,2.5-1.7v1.1c-1.3,0-2,0.9-2.5,2.5v4.3h-1.1V34.8z"/>
			<path class="st0" d="M237.8,40.5c-0.6,0.7-1.6,1.3-2.4,1.3c-0.6,0-1.3-0.5-1.3-1.2c0-1.1,1.2-1.8,3.7-2.2V40.5z M234.3,36.8
				c0.2-0.5,0.8-1.2,2-1.2c0.9,0,1.6,0.4,1.6,1.4v0.4c-3.4,0.6-4.7,1.5-4.7,3.2c0,1.4,1,2.1,2.2,2.1c1.2,0,2-0.6,2.6-1.2l0.1,1.1
				h1.1c-0.1-0.4-0.2-0.8-0.2-1.7V37c0-1.7-1.4-2.3-2.7-2.3c-1.5,0-2.4,0.7-2.9,1.6L234.3,36.8z"/>
			<path class="st0" d="M241.9,34.8v-2.5h1.1v2.5h1.8v0.9h-1.8v5.5c0,0.4,0.3,0.5,0.9,0.5c0.4,0,0.7,0,0.9-0.1v0.9
				c-0.2,0.1-0.6,0.1-1.2,0.1c-1.2,0-1.6-0.3-1.6-1.3v-5.7h-1.3v-0.9H241.9z"/>
			<path class="st0" d="M251.4,38.7c0,2-0.8,3.1-2.1,3.1c-1.3,0-2.1-1.1-2.1-3.1c0-2,0.8-3.1,2.1-3.1
				C250.6,35.6,251.4,36.7,251.4,38.7z M252.4,38.7c0-2.2-1.1-4-3.2-4c-2.1,0-3.2,1.8-3.2,4c0,2.2,1.1,4,3.2,4
				C251.4,42.7,252.4,40.9,252.4,38.7z"/>
			<path class="st0" d="M254.5,34.8h1.1v1.5h0c0.6-1.1,1.2-1.7,2.5-1.7v1.1c-1.3,0-2,0.9-2.5,2.5v4.3h-1.1V34.8z"/>
			<path class="st0" d="M265.3,34.8l-2.7,8.4c-0.6,1.7-1.6,2.2-2.6,2.2c-0.4,0-0.6-0.1-0.8-0.1v-0.9c0.1,0,0.3,0,0.6,0
				c0.7,0,1.7-0.1,2-1.8l-2.7-7.8h1.1l2.1,5.9h0l1.8-5.9H265.3z"/>
		</g>
		<g>
			<path class="st0" d="M253.9,18.5h2.7v-3.4c1.1,0,4-0.2,5.4-0.4v-2.2c-1.1,0.1-2.6,0.3-3.8,0.3c1.2-0.8,2-2.2,2-3.8
				c0-2.7-2.3-4.7-4.9-4.7c-2.6,0-4.9,2-4.9,4.7c0,1.7,0.8,3.1,2.1,3.9h-3.3v2.3h4.4h0.4V18.5z M253.2,9c0-1.4,1-2.4,2.1-2.4
				c1.1,0,2.1,0.9,2.1,2.4c0,1.4-1,2.4-2.1,2.4C254.2,11.3,253.2,10.4,253.2,9z"/>
			<rect x="225.1" y="4.4" class="st0" width="2.7" height="21.8"/>
			<path class="st0" d="M170.5,8.6h-3.3c-0.5-2.4-2.6-4.1-5.1-4.1c-2.9,0-5.3,2.2-5.3,5.3c0,3.1,2.4,5.3,5.3,5.3
				c2.5,0,4.6-1.7,5.1-4.1h3.3v4.2h2.7V4.4h-2.7V8.6z M162,12.8c-1.4,0-2.5-1.1-2.5-2.9c0-1.7,1.1-2.9,2.5-2.9
				c1.4,0,2.5,1.1,2.5,2.9C164.5,11.6,163.4,12.8,162,12.8z"/>
			<path class="st0" d="M170.5,18.3h-7v-1.7h-2.7v9.3h12.4v-9.3h-2.7V18.3z M170.5,23.5h-7v-2.8h7V23.5z"/>
			<rect x="188" y="4.4" class="st0" width="2.7" height="21.8"/>
			<path class="st0" d="M176.3,7.4h6.4c0,0-0.5,6.5-7.3,9.1l1.4,2.4c0,0,8.9-3.1,8.9-13.9h-9.5V7.4z"/>
			<path class="st0" d="M234.6,25.9h12.1v-8.7h-12.1V25.9z M237.3,19.7h6.7v3.8h-6.7V19.7z"/>
			<polygon class="st0" points="143.6,17.6 140.9,17.6 140.9,25.9 153.2,25.9 153.2,23.5 143.6,23.5 			"/>
			<polygon class="st0" points="114.2,4.4 111.5,4.4 111.5,20.6 114.2,20.6 114.2,11.1 116.6,11.1 116.6,8.7 114.2,8.7 			"/>
			<polygon class="st0" points="153,4.4 150.2,4.4 150.2,20.6 153,20.6 153,11.1 155.4,11.1 155.4,8.7 153,8.7 			"/>
			<polygon class="st0" points="104.8,17.6 102.1,17.6 102.1,25.9 114.4,25.9 114.4,23.5 104.8,23.5 			"/>
			<polygon class="st0" points="192.6,14.8 200.2,14.8 200.2,16.3 195.3,16.3 195.3,18.5 205.3,18.5 205.3,19.9 195.3,19.9 
				195.3,25.9 208.2,25.9 208.2,23.7 198,23.7 198,22.1 208,22.1 208,16.3 203.1,16.3 203.1,14.8 210.7,14.8 210.7,12.4 192.6,12.4 
							"/>
			<path class="st0" d="M147.9,16.9l1.6-2.1c0,0-4.9-2.8-4.9-8.7V4.5h-2.9v1.6c0,5.9-4.9,8.7-4.9,8.7l1.6,2.1c1.8-1,3.6-3.1,4.7-5
				C144.3,13.9,146.1,15.9,147.9,16.9z"/>
			<path class="st0" d="M219,7.3V4.5h-2.9v2.8c0,6.1-5.2,9.5-5.2,9.5l1.6,2c2.2-1.5,4-3.5,5.1-5.6c1.1,2,2.9,4.1,5.1,5.6l1.6-2
				C224.3,16.8,219,13.5,219,7.3z"/>
			<path class="st0" d="M133.5,4.9h-13.3v2.4h10.2c0,0-0.1,3.4-1.3,4.6h-11.4v2.3h7.4v3.5H120v2.4h11.1v6h2.7v-8.3h-5.7v-3.5h7.9V12
				h-3.7C133.2,10.8,133.4,8,133.5,4.9z"/>
			<path class="st0" d="M109.1,10.8c0-1.1-0.4-2-1-2.8h1.8V5.6h-4.4V3.9h-2.8v1.7h-4.4V8h1.8c-0.6,0.7-1,1.6-1,2.8c0,2.9,2.2,5,5,5
				C106.8,15.8,109.1,13.7,109.1,10.8z M101.8,10.9c0-1.6,1-2.6,2.3-2.6s2.3,1,2.3,2.6c0,1.6-1,2.6-2.3,2.6S101.8,12.4,101.8,10.9z"
				/>
			<path class="st0" d="M244,9.5h-3.2c-0.2-0.6-0.5-1-0.8-1.5h1.8V5.6h-4.4V3.9h-2.8v1.7h-4.4V8h1.8c-0.6,0.7-1,1.6-1,2.8
				c0,2.9,2.2,5,5,5c2.4,0,4.4-1.6,4.9-3.8h3.1v4h2.7V4.4H244V9.5z M236,13.5c-1.3,0-2.3-1-2.3-2.6c0-1.6,1-2.6,2.3-2.6
				c1.3,0,2.3,1,2.3,2.6C238.3,12.4,237.3,13.5,236,13.5z"/>
			<polygon class="st0" points="259,19.2 263.1,19.2 263.1,21.1 265.8,21.1 265.8,4.4 263.1,4.4 263.1,16.9 259,16.9 			"/>
			<polygon class="st0" points="256.6,23.5 256.6,19.6 253.9,19.6 253.9,25.9 266.1,25.9 266.1,23.5 			"/>
			<path class="st0" d="M201.6,7.3c1.8,2.1,4.8,3.3,6.4,3.7l0.8-2.1c-2.5-0.6-5.7-2.6-5.7-4.9h-3c0,2.3-3.3,4.3-5.8,4.9l0.8,2.1
				C196.8,10.7,199.8,9.4,201.6,7.3z"/>
		</g>
	</g>
	<g>
		<g>
			<rect x="63.8" class="st0" width="10.6" height="42.5"/>
			<polygon class="st0" points="33.2,12.8 20.6,12.8 10.6,24 10.6,0 0,0 0,42.5 10.6,42.5 10.6,30.4 22.5,42.5 36.8,42.5 20.4,26.5 
							"/>
			<path class="st0" d="M38.3,31.2c0,7.2,3.9,11.7,12.5,11.7c3.6,0,6-0.3,6-0.3v-7c0,0-1.8,0.1-2.9,0c-4.4-0.5-4.8-2.9-4.8-6.8v-8.5
				H38.3V31.2z"/>
			<rect x="49.1" y="12.8" class="st0" width="10.4" height="7.4"/>
		</g>
		<polygon class="st1" points="49.1,0 49.1,20.2 30.4,20.2 		"/>
	</g>
</g>
</svg>
