<?xml version="1.0" encoding="utf-8"?>
<!-- Generator: Adobe Illustrator 28.0.0, SVG Export Plug-In . SVG Version: 6.00 Build 0)  -->
<svg version="1.1" id="Layer_1" xmlns="http://www.w3.org/2000/svg" xmlns:xlink="http://www.w3.org/1999/xlink" x="0px" y="0px"
	 viewBox="0 0 160.5 42.5" style="enable-background:new 0 0 160.5 42.5;" xml:space="preserve">
<style type="text/css">
	.st0{fill:#005E9A;}
	.st1{fill:#ED1C24;}
	.st2{fill:#1D3A6A;}
</style>
<g>
	<g>
		<g>
			<polygon class="st0" points="20.6,26.9 33.3,12.7 20.6,12.7 10.6,23.4 10.6,0 0,0 0,42.5 10.6,42.5 10.6,29.7 22.6,42.5 
				36.8,42.5 			"/>
			<polyline class="st0" points="129.8,42.5 119.2,42.5 119.2,0 129.8,0 			"/>
			<g>
				<path class="st0" d="M38.3,30.8c0,7.2,3.9,11.7,12.5,11.7c3.6,0,6-0.3,6-0.3v-7c0,0-1.8,0.1-2.9,0c-4.4-0.5-4.8-2.9-4.8-6.8
					v-8.5H38.3V30.8z"/>
				<rect x="49.1" y="12.7" class="st0" width="10.4" height="7.4"/>
				<polygon class="st1" points="49.1,0 49.1,20.2 30.4,20.2 				"/>
			</g>
			<g>
				<path class="st2" d="M95.7,22.3c0,0-11.4,11.5-11.9,11.9c-1.4,1.1-3.2,1.8-5.2,1.8c-4.6,0-8.4-3.8-8.4-8.4s3.8-8.4,8.4-8.4
					c1.9,0,3.6,0.6,5,1.6l4.6-4.6c-2.6-2.2-5.9-3.5-9.6-3.5c-8.2,0-14.9,6.7-14.9,14.9s6.7,14.9,14.9,14.9c3.6,0,6.8-1.3,9.4-3.3
					c0.1,0,0.1-0.1,0.2-0.1l1.9-1.9l0.4-0.4l4.6-4.6l5.2-5.2L95.7,22.3z"/>
				<path class="st2" d="M83,32.9c0,0,11.4-11.5,11.9-11.9c1.4-1.1,3.2-1.8,5.2-1.8c4.6,0,8.4,3.8,8.4,8.4s-3.8,8.4-8.4,8.4
					c-1.9,0-3.6-0.6-5-1.6L90.5,39c2.6,2.2,5.9,3.5,9.6,3.5c8.2,0,14.9-6.7,14.9-14.9s-6.7-14.9-14.9-14.9c-3.6,0-6.8,1.3-9.4,3.3
					c-0.1,0-0.1,0.1-0.2,0.1L88.6,18l-0.4,0.4L83.6,23l-5.2,5.2L83,32.9z"/>
			</g>
			<path class="st2" d="M141.5,32.5c0.1,3.4,2.9,4.8,6,4.8c2.2,0,5.1-0.9,5.1-3.6c0-2.3-3.2-3.2-8.8-4.4c-4.5-1-9-2.6-9-7.5
				c0-7.2,6.2-9.1,12.3-9.1c6.2,0,11.9,2.1,12.5,9h-7.4c-0.2-3-2.5-3.8-5.3-3.8c-1.7,0-4.3,0.3-4.3,2.6c0,2.8,4.4,3.2,8.8,4.2
				c4.5,1,9,2.7,9,7.9c0,7.4-6.4,9.8-12.9,9.8c-6.6,0-12.9-2.5-13.3-9.9H141.5z"/>
		</g>
	</g>
</g>
</svg>
