<?xml version="1.0" encoding="utf-8"?>
<!-- Generator: Adobe Illustrator 28.0.0, SVG Export Plug-In . SVG Version: 6.00 Build 0)  -->
<svg version="1.1" id="Layer_1" xmlns="http://www.w3.org/2000/svg" xmlns:xlink="http://www.w3.org/1999/xlink" x="0px" y="0px"
	 viewBox="0 0 342 46" style="enable-background:new 0 0 342 46;" xml:space="preserve">
<style type="text/css">
	.st0{fill:#005E9A;}
	.st1{fill:#ED1C24;}
	.st2{fill:#1D3A6A;}
	.st3{fill:#276199;}
</style>
<g>
	<g>
		<g>
			<polygon class="st0" points="20.6,27 33.3,12.8 20.6,12.8 10.6,23.5 10.6,0.1 0,0.1 0,42.6 10.6,42.6 10.6,29.8 22.6,42.6 
				36.8,42.6 			"/>
			<polyline class="st0" points="129.8,42.6 119.2,42.6 119.2,0.1 129.8,0.1 			"/>
			<g>
				<path class="st0" d="M38.3,30.9c0,7.2,3.9,11.7,12.5,11.7c3.6,0,6-0.3,6-0.3v-7c0,0-1.8,0.1-2.9,0c-4.4-0.5-4.8-2.9-4.8-6.8
					v-8.5H38.3V30.9z"/>
				<rect x="49.1" y="12.8" class="st0" width="10.4" height="7.4"/>
				<polygon class="st1" points="49.1,0.1 49.1,20.3 30.4,20.3 				"/>
			</g>
			<g>
				<path class="st2" d="M95.7,22.4c0,0-11.4,11.5-11.9,11.9c-1.4,1.1-3.2,1.8-5.2,1.8c-4.6,0-8.4-3.8-8.4-8.4s3.8-8.4,8.4-8.4
					c1.9,0,3.6,0.6,5,1.6l4.6-4.6c-2.6-2.2-5.9-3.5-9.6-3.5c-8.2,0-14.9,6.7-14.9,14.9s6.7,14.9,14.9,14.9c3.6,0,6.8-1.3,9.4-3.3
					c0.1,0,0.1-0.1,0.2-0.1l1.9-1.9l0.4-0.4l4.6-4.6l5.2-5.2L95.7,22.4z"/>
				<path class="st2" d="M83,33c0,0,11.4-11.5,11.9-11.9c1.4-1.1,3.2-1.8,5.2-1.8c4.6,0,8.4,3.8,8.4,8.4s-3.8,8.4-8.4,8.4
					c-1.9,0-3.6-0.6-5-1.6l-4.6,4.6c2.6,2.2,5.9,3.5,9.6,3.5c8.2,0,14.9-6.7,14.9-14.9s-6.7-14.9-14.9-14.9c-3.6,0-6.8,1.3-9.4,3.3
					c-0.1,0-0.1,0.1-0.2,0.1l-1.9,1.9l-0.4,0.4l-4.6,4.6l-5.2,5.2L83,33z"/>
			</g>
			<path class="st2" d="M141.5,32.6c0.1,3.4,2.9,4.8,6,4.8c2.2,0,5.1-0.9,5.1-3.6c0-2.3-3.2-3.2-8.8-4.4c-4.5-1-9-2.6-9-7.5
				c0-7.2,6.2-9.1,12.3-9.1c6.2,0,11.9,2.1,12.5,9h-7.4c-0.2-3-2.5-3.8-5.3-3.8c-1.7,0-4.3,0.3-4.3,2.6c0,2.8,4.4,3.2,8.8,4.2
				c4.5,1,9,2.7,9,7.9c0,7.4-6.4,9.8-12.9,9.8c-6.6,0-12.9-2.5-13.3-9.9H141.5z"/>
		</g>
	</g>
	<g>
		<path class="st3" d="M184.6,24H181l-4.7-7.3c-0.1-0.2-0.2-0.4-0.4-0.8h0V24H173V7.4h2.8v7.8h0c0.1-0.2,0.2-0.5,0.4-0.8l4.5-7h3.4
			l-5.5,7.9L184.6,24z"/>
		<path class="st3" d="M196.1,10.1h-4.2V24h-2.9V10.1h-4.2V7.4h11.3V10.1z"/>
		<path class="st3" d="M206.6,24h-8.4V7.4h2.8v13.9h5.6V24z"/>
		<path class="st3" d="M222,16.4c-1.9-1.1-3.3-2.4-4.3-4c-0.4,0.8-1,1.7-1.9,2.6c-0.9,0.9-1.7,1.6-2.5,2l-1.8-2
			c1.3-0.6,2.5-1.5,3.4-2.7c0.9-1.3,1.4-2.6,1.4-3.9V7.6h-4V5.3h10.4v2.3h-3.9v0.8c0,1.3,0.4,2.5,1.3,3.5c0.9,1,2,1.8,3.4,2.3
			L222,16.4z M221.3,25.9c-2,0-3.6-0.4-4.7-1.2c-1.1-0.8-1.7-1.8-1.7-3.1c0-1.3,0.6-2.3,1.7-3.1c1.1-0.8,2.7-1.2,4.7-1.2
			c2,0,3.6,0.4,4.7,1.2c1.1,0.8,1.7,1.8,1.7,3.1c0,1.3-0.6,2.4-1.7,3.1C224.9,25.5,223.3,25.9,221.3,25.9z M221.3,19.6
			c-2.6,0-3.8,0.6-3.8,1.9c0,1.3,1.3,2,3.8,2c2.6,0,3.8-0.7,3.8-2C225.1,20.3,223.8,19.6,221.3,19.6z M227.4,12v5h-2.5V4.3h2.5v5.3
			h2.9V12H227.4z"/>
		<path class="st3" d="M231.3,20.1V5.9h2.4v4.9h4.4V5.9h2.5v14.2H231.3z M238.2,13.1h-4.4v4.6h4.4V13.1z M243.9,26V4.3h2.5V26H243.9
			z"/>
		<path class="st3" d="M261.3,16.8c-4,0.3-8.2,0.4-12.8,0.4l-0.2-2.4c1.8,0,3.2,0,4.2,0v-4.3h2.5v4.3c2.9-0.1,5-0.2,6.2-0.3
			L261.3,16.8z M259.8,5.5c0,3.1-0.1,5.7-0.3,7.8l-2.4-0.3c0.1-1.5,0.2-3.2,0.3-5.2h-7.4V5.5H259.8z M251.3,25.2v-6.9h2.5v4.5h10.8
			v2.4H251.3z M264.4,13.8v6.4h-2.5V4.3h2.5v7.1h2.8v2.4H264.4z"/>
		<path class="st3" d="M279.2,20.7c-1.2,0.2-2.3,0.3-3.3,0.4c-1,0-3.6,0.1-7.7,0.1V12h6.9V8.4h-6.8V6h9.3v8.4h-6.9v4.5
			c4.4,0,7.1-0.1,8.2-0.4L279.2,20.7z M280.7,26V4.3h2.5V26H280.7z"/>
		<path class="st3" d="M285.5,15.7v-2.3h17.9v2.3H285.5z M287.3,12.3V10h2.6l-0.2-2.6h2.5l0.1,2.6h4.1l0.2-2.6h2.5l-0.2,2.6h2.6v2.3
			H287.3z M287.6,6.9V4.6h13.8v2.3H287.6z M288.1,25.7v-5.5h10.1v-1.1h-10.1v-2.3h12.6v5.6h-10.1v1h10.6v2.3H288.1z"/>
		<path class="st3" d="M313.6,16.3c-1.7,0.2-4,0.4-6.7,0.4h-2.4V9.8h5.4V7.7h-5.4V5.4h7.9v6.7H307v2.2h1.8c1.7,0,3.2-0.1,4.5-0.3
			L313.6,16.3z M320,26c-1.2-0.2-2.5-0.8-3.8-1.7c-1.3-0.9-2.2-1.8-2.8-2.8c-0.5,0.9-1.4,1.8-2.6,2.7c-1.3,0.9-2.5,1.5-3.8,1.8
			l-1.5-2.2c1.9-0.3,3.5-1,4.8-2.1c1.3-1.1,1.9-2.3,1.9-3.5v-0.7h2.5v0.7c0,1.2,0.6,2.3,1.9,3.5c1.3,1.1,2.9,1.9,4.8,2.2L320,26z
			 M318.2,18.1v-5.9h-1.5v4.6h-2.5v-12h2.5v5.1h1.5V4.3h2.5v13.8H318.2z"/>
		<path class="st3" d="M322.3,17v-2.4h7.7v-1.6h-5.9v-2.3h2.6l-0.2-3h2.5l0.1,3h4.1l0.2-3h2.5l-0.2,3h2.6v2.3h-5.9v1.6h7.7V17H322.3
			z M324.4,7.2V4.8h13.7v2.4H324.4z M325,25.5v-7.4h12.6v7.4H325z M335.1,20.5h-7.6v2.6h7.6V20.5z"/>
	</g>
	<g>
		<path class="st3" d="M179.7,42.6h-1.5l-3.8-4.5c-0.1-0.2-0.2-0.3-0.3-0.3h0v4.9H173v-9.9h1.1v4.6h0c0.1-0.1,0.2-0.2,0.3-0.3
			l3.7-4.3h1.3l-4.3,4.7L179.7,42.6z"/>
		<path class="st3" d="M186.4,33.7h-2.8v8.9h-1.1v-8.9h-2.8v-1h6.7V33.7z"/>
		<path class="st3" d="M192.6,42.6h-5v-9.9h1.1v8.9h4V42.6z"/>
		<path class="st3" d="M199.5,42.5c-0.3,0.1-0.6,0.2-1,0.2c-1.2,0-1.8-0.7-1.8-2v-4.2h-1.2v-0.9h1.2v-1.7l1.1-0.3v2.1h1.8v0.9h-1.8
			v4c0,0.5,0.1,0.8,0.2,1c0.2,0.2,0.4,0.3,0.8,0.3c0.3,0,0.5-0.1,0.7-0.2V42.5z"/>
		<path class="st3" d="M200,39.2c0-1.2,0.3-2.1,0.9-2.8c0.6-0.7,1.5-1,2.6-1c1,0,1.8,0.3,2.4,1c0.6,0.6,0.9,1.5,0.9,2.7
			c0,1.1-0.3,2-1,2.7c-0.6,0.7-1.5,1-2.5,1c-1,0-1.8-0.3-2.5-1C200.3,41.1,200,40.3,200,39.2z M201.1,39.1c0,0.8,0.2,1.5,0.6,2
			c0.4,0.5,1,0.7,1.7,0.7c0.7,0,1.3-0.2,1.7-0.7c0.4-0.5,0.6-1.2,0.6-2c0-0.9-0.2-1.6-0.6-2.1c-0.4-0.5-1-0.7-1.7-0.7
			c-0.7,0-1.3,0.3-1.7,0.8C201.3,37.6,201.1,38.3,201.1,39.1z"/>
		<path class="st3" d="M207.8,39.2c0-1.2,0.3-2.1,0.9-2.8c0.6-0.7,1.5-1,2.6-1c1,0,1.8,0.3,2.4,1c0.6,0.6,0.9,1.5,0.9,2.7
			c0,1.1-0.3,2-1,2.7c-0.6,0.7-1.5,1-2.5,1c-1,0-1.8-0.3-2.5-1C208.1,41.1,207.8,40.3,207.8,39.2z M208.8,39.1c0,0.8,0.2,1.5,0.6,2
			c0.4,0.5,1,0.7,1.7,0.7c0.7,0,1.3-0.2,1.7-0.7c0.4-0.5,0.6-1.2,0.6-2c0-0.9-0.2-1.6-0.6-2.1c-0.4-0.5-1-0.7-1.7-0.7
			c-0.7,0-1.3,0.3-1.7,0.8C209,37.6,208.8,38.3,208.8,39.1z"/>
		<path class="st3" d="M216,42.6V32.2h1.1v10.4H216z"/>
		<path class="st3" d="M231.6,42.6h-1.1v-4c0-0.8-0.1-1.4-0.4-1.8c-0.2-0.3-0.7-0.5-1.2-0.5c-0.5,0-0.9,0.2-1.2,0.7
			c-0.3,0.5-0.5,1-0.5,1.6v4h-1.1v-4.2c0-1.4-0.5-2.1-1.6-2.1c-0.5,0-0.9,0.2-1.2,0.6c-0.3,0.4-0.5,1-0.5,1.6v4h-1.1v-7.1h1.1v1.1h0
			c0.5-0.9,1.2-1.3,2.2-1.3c0.5,0,0.9,0.1,1.2,0.4c0.4,0.3,0.6,0.6,0.8,1.1c0.5-1,1.3-1.5,2.3-1.5c1.5,0,2.3,1,2.3,2.9V42.6z"/>
		<path class="st3" d="M233.5,36.1c0.7-0.4,1.5-0.7,2.4-0.7c1.6,0,2.4,0.9,2.4,2.6v4.6h-1.1v-1.1h0c-0.5,0.9-1.2,1.3-2.2,1.3
			c-0.7,0-1.2-0.2-1.6-0.6c-0.4-0.4-0.6-0.9-0.6-1.5c0-1.3,0.8-2.1,2.3-2.3l2.1-0.3c0-1.2-0.5-1.8-1.5-1.8c-0.9,0-1.6,0.3-2.3,0.9
			V36.1z M235.5,39.3c-0.5,0.1-1,0.2-1.2,0.4c-0.3,0.2-0.4,0.5-0.4,1c0,0.4,0.1,0.6,0.4,0.9c0.3,0.2,0.6,0.3,1,0.3
			c0.6,0,1-0.2,1.4-0.6c0.4-0.4,0.6-0.9,0.6-1.5V39L235.5,39.3z"/>
		<path class="st3" d="M245.8,42.6h-1.1v-4c0-1.5-0.6-2.3-1.7-2.3c-0.6,0-1,0.2-1.4,0.6c-0.4,0.4-0.6,1-0.6,1.6v4H240v-7.1h1.1v1.2
			h0c0.5-0.9,1.3-1.3,2.3-1.3c0.8,0,1.4,0.2,1.8,0.7c0.4,0.5,0.6,1.2,0.6,2.2V42.6z"/>
		<path class="st3" d="M247.7,36.1c0.7-0.4,1.5-0.7,2.4-0.7c1.6,0,2.4,0.9,2.4,2.6v4.6h-1.1v-1.1h0c-0.5,0.9-1.2,1.3-2.2,1.3
			c-0.7,0-1.2-0.2-1.6-0.6c-0.4-0.4-0.6-0.9-0.6-1.5c0-1.3,0.8-2.1,2.3-2.3l2.1-0.3c0-1.2-0.5-1.8-1.5-1.8c-0.9,0-1.6,0.3-2.3,0.9
			V36.1z M249.7,39.3c-0.5,0.1-1,0.2-1.2,0.4c-0.3,0.2-0.4,0.5-0.4,1c0,0.4,0.1,0.6,0.4,0.9c0.3,0.2,0.6,0.3,1,0.3
			c0.6,0,1-0.2,1.4-0.6c0.4-0.4,0.6-0.9,0.6-1.5V39L249.7,39.3z"/>
		<path class="st3" d="M260.1,42.1c0,2.6-1.2,3.9-3.6,3.9c-0.9,0-1.6-0.2-2.3-0.5v-1.1c0.8,0.4,1.5,0.7,2.3,0.7
			c1.7,0,2.6-0.9,2.6-2.8v-0.8h0c-0.6,0.9-1.4,1.4-2.4,1.4c-0.9,0-1.6-0.3-2.1-0.9c-0.5-0.6-0.8-1.5-0.8-2.5c0-1.2,0.3-2.2,0.9-2.9
			c0.6-0.7,1.4-1.1,2.3-1.1c1,0,1.7,0.4,2.1,1.2h0v-1h1V42.1z M259.1,38.4c0-0.6-0.2-1.1-0.6-1.5c-0.4-0.4-0.9-0.6-1.4-0.6
			c-0.7,0-1.3,0.3-1.7,0.8c-0.4,0.5-0.6,1.2-0.6,2.2c0,0.8,0.2,1.4,0.6,1.9c0.4,0.5,0.9,0.7,1.5,0.7c0.6,0,1.2-0.2,1.6-0.7
			c0.4-0.5,0.6-1,0.6-1.7V38.4z"/>
		<path class="st3" d="M267.6,39.4h-5c0,0.8,0.2,1.4,0.7,1.9c0.4,0.4,1,0.6,1.7,0.6c0.8,0,1.5-0.3,2.2-0.8v1
			c-0.6,0.5-1.4,0.7-2.4,0.7c-1,0-1.8-0.3-2.3-1c-0.6-0.7-0.8-1.6-0.8-2.7c0-1.1,0.3-2,0.9-2.7c0.6-0.7,1.4-1,2.3-1
			c0.9,0,1.6,0.3,2.1,0.9c0.5,0.6,0.8,1.4,0.8,2.5V39.4z M266.5,38.4c0-0.7-0.2-1.2-0.5-1.5c-0.3-0.4-0.8-0.6-1.3-0.6
			c-0.5,0-1,0.2-1.4,0.6c-0.4,0.4-0.6,0.9-0.7,1.5H266.5z"/>
		<path class="st3" d="M278.8,42.6h-1.1v-4c0-0.8-0.1-1.4-0.4-1.8c-0.2-0.3-0.7-0.5-1.2-0.5c-0.5,0-0.9,0.2-1.2,0.7
			c-0.3,0.5-0.5,1-0.5,1.6v4h-1.1v-4.2c0-1.4-0.5-2.1-1.6-2.1c-0.5,0-0.9,0.2-1.2,0.6c-0.3,0.4-0.5,1-0.5,1.6v4h-1.1v-7.1h1.1v1.1h0
			c0.5-0.9,1.2-1.3,2.2-1.3c0.5,0,0.9,0.1,1.2,0.4c0.4,0.3,0.6,0.6,0.8,1.1c0.5-1,1.3-1.5,2.3-1.5c1.5,0,2.3,1,2.3,2.9V42.6z"/>
		<path class="st3" d="M286.1,39.4h-5c0,0.8,0.2,1.4,0.7,1.9c0.4,0.4,1,0.6,1.7,0.6c0.8,0,1.5-0.3,2.2-0.8v1
			c-0.6,0.5-1.4,0.7-2.4,0.7c-1,0-1.8-0.3-2.3-1c-0.6-0.7-0.8-1.6-0.8-2.7c0-1.1,0.3-2,0.9-2.7c0.6-0.7,1.4-1,2.3-1
			c0.9,0,1.6,0.3,2.1,0.9c0.5,0.6,0.7,1.4,0.7,2.5V39.4z M285,38.4c0-0.7-0.2-1.2-0.5-1.5c-0.3-0.4-0.8-0.6-1.3-0.6
			c-0.5,0-1,0.2-1.4,0.6c-0.4,0.4-0.6,0.9-0.7,1.5H285z"/>
		<path class="st3" d="M293.2,42.6h-1.1v-4c0-1.5-0.6-2.3-1.7-2.3c-0.6,0-1,0.2-1.4,0.6c-0.4,0.4-0.6,1-0.6,1.6v4h-1.1v-7.1h1.1v1.2
			h0c0.5-0.9,1.3-1.3,2.3-1.3c0.8,0,1.4,0.2,1.8,0.7c0.4,0.5,0.6,1.2,0.6,2.2V42.6z"/>
		<path class="st3" d="M298.1,42.5c-0.3,0.1-0.6,0.2-1,0.2c-1.2,0-1.8-0.7-1.8-2v-4.2H294v-0.9h1.2v-1.7l1.1-0.3v2.1h1.8v0.9h-1.8v4
			c0,0.5,0.1,0.8,0.2,1c0.2,0.2,0.4,0.3,0.8,0.3c0.3,0,0.5-0.1,0.7-0.2V42.5z"/>
		<path class="st3" d="M301.5,41.2c0.6,0.5,1.3,0.7,2,0.7c1,0,1.5-0.3,1.5-1c0-0.3-0.1-0.5-0.3-0.7c-0.2-0.2-0.6-0.4-1.3-0.6
			c-0.7-0.3-1.2-0.6-1.5-0.9c-0.3-0.3-0.4-0.7-0.4-1.2c0-0.6,0.3-1.1,0.8-1.5c0.5-0.4,1.1-0.6,1.9-0.6c0.6,0,1.1,0.1,1.6,0.3v1.1
			c-0.5-0.3-1.1-0.5-1.8-0.5c-0.4,0-0.8,0.1-1,0.3c-0.2,0.2-0.4,0.4-0.4,0.7c0,0.3,0.1,0.6,0.3,0.7c0.2,0.2,0.6,0.4,1.2,0.6
			c0.8,0.3,1.4,0.6,1.6,1c0.3,0.3,0.4,0.7,0.4,1.1c0,0.6-0.3,1.1-0.8,1.5c-0.5,0.4-1.2,0.5-2,0.5c-0.7,0-1.3-0.1-1.9-0.4V41.2z"/>
		<path class="st3" d="M313,35.6l-3.2,8.2c-0.6,1.4-1.4,2.2-2.4,2.2c-0.2,0-0.5,0-0.7-0.1v-1c0.2,0.1,0.4,0.1,0.6,0.1
			c0.6,0,1-0.3,1.3-1l0.6-1.4l-2.7-7h1.2l1.9,5.5c0,0,0.1,0.2,0.1,0.5h0l0.1-0.5l2-5.5H313z"/>
		<path class="st3" d="M313.3,41.2c0.6,0.5,1.3,0.7,2,0.7c1,0,1.5-0.3,1.5-1c0-0.3-0.1-0.5-0.3-0.7c-0.2-0.2-0.6-0.4-1.3-0.6
			c-0.7-0.3-1.2-0.6-1.5-0.9c-0.3-0.3-0.4-0.7-0.4-1.2c0-0.6,0.3-1.1,0.8-1.5c0.5-0.4,1.1-0.6,1.9-0.6c0.6,0,1.1,0.1,1.6,0.3v1.1
			c-0.5-0.3-1.1-0.5-1.8-0.5c-0.4,0-0.8,0.1-1,0.3c-0.2,0.2-0.4,0.4-0.4,0.7c0,0.3,0.1,0.6,0.3,0.7c0.2,0.2,0.6,0.4,1.2,0.6
			c0.8,0.3,1.4,0.6,1.6,1c0.3,0.3,0.4,0.7,0.4,1.1c0,0.6-0.3,1.1-0.8,1.5c-0.5,0.4-1.2,0.5-2,0.5c-0.7,0-1.3-0.1-1.9-0.4V41.2z"/>
		<path class="st3" d="M322.5,42.5c-0.3,0.1-0.6,0.2-1,0.2c-1.2,0-1.8-0.7-1.8-2v-4.2h-1.2v-0.9h1.2v-1.7l1.1-0.3v2.1h1.8v0.9h-1.8
			v4c0,0.5,0.1,0.8,0.2,1c0.2,0.2,0.4,0.3,0.8,0.3c0.3,0,0.5-0.1,0.7-0.2V42.5z"/>
		<path class="st3" d="M329,39.4h-5c0,0.8,0.2,1.4,0.7,1.9c0.4,0.4,1,0.6,1.7,0.6c0.8,0,1.5-0.3,2.2-0.8v1c-0.6,0.5-1.4,0.7-2.4,0.7
			c-1,0-1.8-0.3-2.3-1c-0.6-0.7-0.8-1.6-0.8-2.7c0-1.1,0.3-2,0.9-2.7c0.6-0.7,1.4-1,2.3-1c0.9,0,1.6,0.3,2.1,0.9
			c0.5,0.6,0.7,1.4,0.7,2.5V39.4z M328,38.4c0-0.7-0.2-1.2-0.5-1.5c-0.3-0.4-0.8-0.6-1.3-0.6c-0.5,0-1,0.2-1.4,0.6
			c-0.4,0.4-0.6,0.9-0.7,1.5H328z"/>
		<path class="st3" d="M340.2,42.6h-1.1v-4c0-0.8-0.1-1.4-0.4-1.8c-0.2-0.3-0.7-0.5-1.2-0.5c-0.5,0-0.9,0.2-1.2,0.7
			c-0.3,0.5-0.5,1-0.5,1.6v4h-1.1v-4.2c0-1.4-0.5-2.1-1.6-2.1c-0.5,0-0.9,0.2-1.2,0.6c-0.3,0.4-0.5,1-0.5,1.6v4h-1.1v-7.1h1.1v1.1h0
			c0.5-0.9,1.2-1.3,2.2-1.3c0.5,0,0.9,0.1,1.2,0.4c0.4,0.3,0.6,0.6,0.8,1.1c0.5-1,1.3-1.5,2.3-1.5c1.5,0,2.3,1,2.3,2.9V42.6z"/>
	</g>
</g>
</svg>
