<?xml version="1.0" encoding="utf-8"?>
<!-- Generator: Adobe Illustrator 28.0.0, SVG Export Plug-In . SVG Version: 6.00 Build 0)  -->
<svg version="1.1" id="Layer_1" xmlns="http://www.w3.org/2000/svg" xmlns:xlink="http://www.w3.org/1999/xlink" x="0px" y="0px"
	 viewBox="0 0 168 42" style="enable-background:new 0 0 168 42;" xml:space="preserve">
<style type="text/css">
	.st0{fill:#296199;}
</style>
<g>
	<g>
		<path class="st0" d="M11.7,19.8H8l-4.7-7.3c-0.1-0.2-0.2-0.4-0.4-0.8l0,0v8.1H0V3.1h2.8V11l0,0c0.1-0.2,0.2-0.5,0.4-0.8l4.5-7h3.4
			l-5.5,7.9L11.7,19.8z"/>
		<path class="st0" d="M23.2,5.8H19v14h-2.9v-14h-4.2V3.1h11.4L23.2,5.8L23.2,5.8z"/>
		<path class="st0" d="M33.8,19.8h-8.4V3.1h2.8v14h5.6L33.8,19.8L33.8,19.8z"/>
		<path class="st0" d="M49.2,12.2c-1.9-1.1-3.3-2.4-4.3-4c-0.4,0.8-1,1.7-1.9,2.6s-1.7,1.6-2.5,2l-1.8-2c1.3-0.6,2.5-1.5,3.4-2.7
			c0.9-1.3,1.4-2.6,1.4-3.9V3.3h-4V1h10.4v2.3H46v0.8c0,1.3,0.4,2.5,1.3,3.5c0.9,1,2,1.8,3.4,2.3L49.2,12.2z M48.5,21.7
			c-2,0-3.6-0.4-4.7-1.2c-1.1-0.8-1.7-1.8-1.7-3.1c0-1.3,0.6-2.3,1.7-3.1c1.1-0.8,2.7-1.2,4.7-1.2c2,0,3.6,0.4,4.7,1.2
			c1.1,0.8,1.7,1.8,1.7,3.1c0,1.3-0.6,2.4-1.7,3.1C52.1,21.3,50.5,21.7,48.5,21.7z M48.5,15.4c-2.6,0-3.8,0.6-3.8,1.9s1.3,2,3.8,2
			c2.6,0,3.8-0.7,3.8-2C52.3,16.1,51,15.4,48.5,15.4z M54.7,7.7v5h-2.5V0h2.5v5.3h2.9v2.4H54.7z"/>
		<path class="st0" d="M58.6,15.9V1.6H61v4.9h4.4V1.6h2.5v14.3H58.6z M65.5,8.8h-4.4v4.6h4.4V8.8z M71.2,21.8V0h2.5v21.8H71.2z"/>
		<path class="st0" d="M88.7,12.6c-4,0.3-8.2,0.4-12.9,0.4l-0.2-2.4c1.8,0,3.2,0,4.2,0V6.2h2.5v4.3c2.9-0.1,5-0.2,6.2-0.3L88.7,12.6
			z M87.2,1.2c0,3.1-0.1,5.7-0.3,7.8l-2.4-0.3c0.1-1.5,0.2-3.2,0.3-5.2h-7.4V1.2H87.2z M78.7,21v-6.9h2.5v4.5H92V21H78.7z M91.8,9.5
			V16h-2.5V0h2.5v7.1h2.8v2.4C94.7,9.5,91.8,9.5,91.8,9.5z"/>
		<path class="st0" d="M106.7,16.5c-1.2,0.2-2.3,0.3-3.3,0.4c-1,0-3.6,0.1-7.7,0.1V7.7h6.9V4.1h-6.8V1.7h9.3v8.4h-6.9v4.5
			c4.4,0,7.1-0.1,8.2-0.4L106.7,16.5z M108.2,21.8V0h2.5v21.8H108.2z"/>
		<path class="st0" d="M113,11.5V9.1h18v2.3H113z M114.8,8V5.7h2.6l-0.2-2.6h2.5l0.1,2.6h4.1l0.2-2.6h2.5l-0.2,2.6h2.6V8H114.8z
			 M115.1,2.6V0.3H129v2.3C129,2.6,115.1,2.6,115.1,2.6z M115.7,21.5V16h10.1v-1.1h-10.1v-2.3h12.7v5.6h-10.1v1h10.7v2.3H115.7z"/>
		<path class="st0" d="M141.3,12.1c-1.7,0.2-4,0.4-6.7,0.4h-2.4V5.5h5.4V3.4h-5.4V1.1h7.9v6.7h-5.4V10h1.8c1.7,0,3.2-0.1,4.5-0.3
			L141.3,12.1z M147.7,21.8c-1.2-0.2-2.5-0.8-3.8-1.7c-1.3-0.9-2.2-1.8-2.8-2.8c-0.5,0.9-1.4,1.8-2.6,2.7c-1.3,0.9-2.5,1.5-3.8,1.8
			l-1.5-2.2c1.9-0.3,3.5-1,4.8-2.1c1.3-1.1,1.9-2.3,1.9-3.5v-0.7h2.5V14c0,1.2,0.6,2.3,1.9,3.5c1.3,1.1,2.9,1.9,4.8,2.2L147.7,21.8z
			 M145.9,13.9V7.9h-1.5v4.6h-2.5V0.5h2.5v5.1h1.5V0h2.5v13.9H145.9z"/>
		<path class="st0" d="M150,12.8v-2.4h7.7V8.7h-5.9V6.4h2.6l-0.2-3h2.5l0.1,3h4.1l0.2-3h2.5l-0.2,3h2.6v2.3h-5.9v1.6h7.7v2.4H150z
			 M152.1,2.9V0.5h13.8v2.4C165.9,2.9,152.1,2.9,152.1,2.9z M152.7,21.3v-7.4h12.7v7.4H152.7z M162.9,16.3h-7.6v2.6h7.6V16.3z"/>
	</g>
	<g>
		<path class="st0" d="M6.7,38.5H5.2L1.4,34c-0.1-0.2-0.2-0.3-0.3-0.3l0,0v4.9H0v-9.9h1.1v4.6l0,0c0.1-0.1,0.2-0.2,0.3-0.3l3.7-4.3
			h1.3l-4.3,4.7L6.7,38.5z"/>
		<path class="st0" d="M13.5,29.5h-2.8v8.9H9.5v-8.9H6.7v-1h6.7L13.5,29.5L13.5,29.5z"/>
		<path class="st0" d="M19.7,38.5h-5v-9.9h1.1v8.9h4v1H19.7z"/>
		<path class="st0" d="M26.6,38.4c-0.3,0.1-0.6,0.2-1,0.2c-1.2,0-1.8-0.7-1.8-2v-4.2h-1.2v-0.9h1.2v-1.7l1.1-0.3v2.1h1.8v0.9h-1.8v4
			c0,0.5,0.1,0.8,0.2,1c0.2,0.2,0.4,0.3,0.8,0.3c0.3,0,0.5-0.1,0.7-0.2V38.4z"/>
		<path class="st0" d="M27.1,35.1c0-1.2,0.3-2.1,0.9-2.8c0.6-0.7,1.5-1,2.6-1c1,0,1.8,0.3,2.4,1c0.6,0.6,0.9,1.5,0.9,2.7
			c0,1.1-0.3,2-1,2.7c-0.6,0.7-1.5,1-2.5,1c-1,0-1.8-0.3-2.5-1C27.4,37,27.1,36.2,27.1,35.1z M28.2,35c0,0.8,0.2,1.5,0.6,2
			c0.4,0.5,1,0.7,1.7,0.7s1.3-0.2,1.7-0.7c0.4-0.5,0.6-1.2,0.6-2c0-0.9-0.2-1.6-0.6-2.1c-0.4-0.5-1-0.7-1.7-0.7s-1.3,0.3-1.7,0.8
			C28.4,33.5,28.2,34.2,28.2,35z"/>
		<path class="st0" d="M35,35.1c0-1.2,0.3-2.1,0.9-2.8c0.6-0.7,1.5-1,2.6-1c1,0,1.8,0.3,2.4,1c0.6,0.6,0.9,1.5,0.9,2.7
			c0,1.1-0.3,2-1,2.7c-0.6,0.7-1.5,1-2.5,1s-1.8-0.3-2.5-1C35.3,37,35,36.2,35,35.1z M36,35c0,0.8,0.2,1.5,0.6,2
			c0.4,0.5,1,0.7,1.7,0.7s1.3-0.2,1.7-0.7c0.4-0.5,0.6-1.2,0.6-2c0-0.9-0.2-1.6-0.6-2.1c-0.4-0.5-1-0.7-1.7-0.7S37,32.5,36.6,33
			C36.2,33.5,36,34.2,36,35z"/>
		<path class="st0" d="M43.2,38.5V28h1.1v10.4H43.2z"/>
		<path class="st0" d="M58.9,38.5h-1.1v-4c0-0.8-0.1-1.4-0.4-1.8c-0.2-0.3-0.7-0.5-1.2-0.5s-0.9,0.2-1.2,0.7s-0.5,1-0.5,1.6v4h-1.1
			v-4.2c0-1.4-0.5-2.1-1.6-2.1c-0.5,0-0.9,0.2-1.2,0.6s-0.5,1-0.5,1.6v4h-1.1v-7.1H50v1.1l0,0c0.5-0.9,1.2-1.3,2.2-1.3
			c0.5,0,0.9,0.1,1.2,0.4c0.4,0.3,0.6,0.6,0.8,1.1c0.5-1,1.3-1.5,2.3-1.5c1.5,0,2.3,1,2.3,2.9V38.5z"/>
		<path class="st0" d="M60.8,32c0.7-0.4,1.5-0.7,2.4-0.7c1.6,0,2.4,0.9,2.4,2.6v4.6h-1.1v-1.1l0,0c-0.5,0.9-1.2,1.3-2.2,1.3
			c-0.7,0-1.2-0.2-1.6-0.6c-0.4-0.4-0.6-0.9-0.6-1.5c0-1.3,0.8-2.1,2.3-2.3l2.1-0.3c0-1.2-0.5-1.8-1.5-1.8c-0.9,0-1.6,0.3-2.3,0.9
			V32H60.8z M62.8,35.2c-0.5,0.1-1,0.2-1.2,0.4c-0.3,0.2-0.4,0.5-0.4,1c0,0.4,0.1,0.6,0.4,0.9c0.3,0.2,0.6,0.3,1,0.3
			c0.6,0,1-0.2,1.4-0.6c0.4-0.4,0.6-0.9,0.6-1.5v-0.8L62.8,35.2z"/>
		<path class="st0" d="M73.1,38.5H72v-4c0-1.5-0.6-2.3-1.7-2.3c-0.6,0-1,0.2-1.4,0.6s-0.6,1-0.6,1.6v4h-1v-7.1h1.1v1.2l0,0
			c0.5-0.9,1.3-1.3,2.3-1.3c0.8,0,1.4,0.2,1.8,0.7c0.4,0.5,0.6,1.2,0.6,2.2L73.1,38.5L73.1,38.5z"/>
		<path class="st0" d="M75.1,32c0.7-0.4,1.5-0.7,2.4-0.7c1.6,0,2.4,0.9,2.4,2.6v4.6h-1.1v-1.1l0,0c-0.5,0.9-1.2,1.3-2.2,1.3
			c-0.7,0-1.2-0.2-1.6-0.6c-0.4-0.4-0.6-0.9-0.6-1.5c0-1.3,0.8-2.1,2.3-2.3l2.1-0.3c0-1.2-0.5-1.8-1.5-1.8c-0.9,0-1.6,0.3-2.3,0.9
			V32H75.1z M77.1,35.2c-0.5,0.1-1,0.2-1.2,0.4c-0.3,0.2-0.4,0.5-0.4,1c0,0.4,0.1,0.6,0.4,0.9c0.3,0.2,0.6,0.3,1,0.3
			c0.6,0,1-0.2,1.4-0.6c0.4-0.4,0.6-0.9,0.6-1.5v-0.8L77.1,35.2z"/>
		<path class="st0" d="M87.5,38c0,2.6-1.2,3.9-3.6,3.9c-0.9,0-1.6-0.2-2.3-0.5v-1.1c0.8,0.4,1.5,0.7,2.3,0.7c1.7,0,2.6-0.9,2.6-2.8
			v-0.8l0,0c-0.6,0.9-1.4,1.4-2.4,1.4c-0.9,0-1.6-0.3-2.1-0.9c-0.5-0.6-0.8-1.5-0.8-2.5c0-1.2,0.3-2.2,0.9-2.9
			c0.6-0.7,1.4-1.1,2.3-1.1c1,0,1.7,0.4,2.1,1.2l0,0v-1h1V38z M86.5,34.3c0-0.6-0.2-1.1-0.6-1.5c-0.4-0.4-0.9-0.6-1.4-0.6
			c-0.7,0-1.3,0.3-1.7,0.8c-0.4,0.5-0.6,1.2-0.6,2.2c0,0.8,0.2,1.4,0.6,1.9c0.4,0.5,0.9,0.7,1.5,0.7s1.2-0.2,1.6-0.7
			c0.4-0.5,0.6-1,0.6-1.7L86.5,34.3L86.5,34.3z"/>
		<path class="st0" d="M95.1,35.3h-5c0,0.8,0.2,1.4,0.7,1.9c0.4,0.4,1,0.6,1.7,0.6c0.8,0,1.5-0.3,2.2-0.8v1
			c-0.6,0.5-1.4,0.7-2.4,0.7c-1,0-1.8-0.3-2.3-1c-0.6-0.7-0.8-1.6-0.8-2.7c0-1.1,0.3-2,0.9-2.7c0.6-0.7,1.4-1,2.3-1
			c0.9,0,1.6,0.3,2.1,0.9c0.5,0.6,0.8,1.4,0.8,2.5v0.6H95.1z M93.9,34.3c0-0.7-0.2-1.2-0.5-1.5c-0.3-0.4-0.8-0.6-1.3-0.6
			c-0.5,0-1,0.2-1.4,0.6s-0.6,0.9-0.7,1.5H93.9z"/>
		<path class="st0" d="M106.3,38.5h-1.1v-4c0-0.8-0.1-1.4-0.4-1.8c-0.2-0.3-0.7-0.5-1.2-0.5s-0.9,0.2-1.2,0.7
			c-0.3,0.5-0.5,1-0.5,1.6v4h-1.1v-4.2c0-1.4-0.5-2.1-1.6-2.1c-0.5,0-0.9,0.2-1.2,0.6c-0.3,0.4-0.5,1-0.5,1.6v4h-1.1v-7.1h1.1v1.1
			l0,0c0.5-0.9,1.2-1.3,2.2-1.3c0.5,0,0.9,0.1,1.2,0.4c0.4,0.3,0.6,0.6,0.8,1.1c0.5-1,1.3-1.5,2.3-1.5c1.5,0,2.3,1,2.3,2.9
			L106.3,38.5L106.3,38.5z"/>
		<path class="st0" d="M113.6,35.3h-5c0,0.8,0.2,1.4,0.7,1.9c0.4,0.4,1,0.6,1.7,0.6c0.8,0,1.5-0.3,2.2-0.8v1
			c-0.6,0.5-1.4,0.7-2.4,0.7c-1,0-1.8-0.3-2.3-1c-0.6-0.7-0.8-1.6-0.8-2.7c0-1.1,0.3-2,0.9-2.7c0.6-0.7,1.4-1,2.3-1
			c0.9,0,1.6,0.3,2.1,0.9c0.5,0.6,0.7,1.4,0.7,2.5v0.6H113.6z M112.5,34.3c0-0.7-0.2-1.2-0.5-1.5c-0.3-0.4-0.8-0.6-1.3-0.6
			c-0.5,0-1,0.2-1.4,0.6s-0.6,0.9-0.7,1.5H112.5z"/>
		<path class="st0" d="M120.8,38.5h-1.1v-4c0-1.5-0.6-2.3-1.7-2.3c-0.6,0-1,0.2-1.4,0.6s-0.6,1-0.6,1.6v4h-1.1v-7.1h1.1v1.2l0,0
			c0.5-0.9,1.3-1.3,2.3-1.3c0.8,0,1.4,0.2,1.8,0.7c0.4,0.5,0.6,1.2,0.6,2.2v4.4H120.8z"/>
		<path class="st0" d="M125.7,38.4c-0.3,0.1-0.6,0.2-1,0.2c-1.2,0-1.8-0.7-1.8-2v-4.2h-1.3v-0.9h1.2v-1.7l1.1-0.3v2.1h1.8v0.9h-1.8
			v4c0,0.5,0.1,0.8,0.2,1c0.2,0.2,0.4,0.3,0.8,0.3c0.3,0,0.5-0.1,0.7-0.2v0.8H125.7z"/>
		<path class="st0" d="M129.1,37.1c0.6,0.5,1.3,0.7,2,0.7c1,0,1.5-0.3,1.5-1c0-0.3-0.1-0.5-0.3-0.7c-0.2-0.2-0.6-0.4-1.3-0.6
			c-0.7-0.3-1.2-0.6-1.5-0.9c-0.3-0.3-0.4-0.7-0.4-1.2c0-0.6,0.3-1.1,0.8-1.5s1.1-0.6,1.9-0.6c0.6,0,1.1,0.1,1.6,0.3v1.1
			c-0.5-0.3-1.1-0.5-1.8-0.5c-0.4,0-0.8,0.1-1,0.3c-0.2,0.2-0.4,0.4-0.4,0.7c0,0.3,0.1,0.6,0.3,0.7c0.2,0.2,0.6,0.4,1.2,0.6
			c0.8,0.3,1.4,0.6,1.6,1c0.3,0.3,0.4,0.7,0.4,1.1c0,0.6-0.3,1.1-0.8,1.5c-0.5,0.4-1.2,0.5-2,0.5c-0.7,0-1.3-0.1-1.9-0.4v-1.1H129.1
			z"/>
		<path class="st0" d="M140.7,31.4l-3.2,8.2c-0.6,1.4-1.4,2.2-2.4,2.2c-0.2,0-0.5,0-0.7-0.1v-1c0.2,0.1,0.4,0.1,0.6,0.1
			c0.6,0,1-0.3,1.3-1l0.6-1.4l-2.7-7h1.2l1.9,5.5c0,0,0.1,0.2,0.1,0.5l0,0l0.1-0.5l2-5.5H140.7z"/>
		<path class="st0" d="M141,37.1c0.6,0.5,1.3,0.7,2,0.7c1,0,1.5-0.3,1.5-1c0-0.3-0.1-0.5-0.3-0.7c-0.2-0.2-0.6-0.4-1.3-0.6
			c-0.7-0.3-1.2-0.6-1.5-0.9c-0.3-0.3-0.4-0.7-0.4-1.2c0-0.6,0.3-1.1,0.8-1.5s1.1-0.6,1.9-0.6c0.6,0,1.1,0.1,1.6,0.3v1.1
			c-0.5-0.3-1.1-0.5-1.8-0.5c-0.4,0-0.8,0.1-1,0.3c-0.2,0.2-0.4,0.4-0.4,0.7c0,0.3,0.1,0.6,0.3,0.7c0.2,0.2,0.6,0.4,1.2,0.6
			c0.8,0.3,1.4,0.6,1.6,1c0.3,0.3,0.4,0.7,0.4,1.1c0,0.6-0.3,1.1-0.8,1.5c-0.5,0.4-1.2,0.5-2,0.5c-0.7,0-1.3-0.1-1.9-0.4v-1.1H141z"
			/>
		<path class="st0" d="M150.2,38.4c-0.3,0.1-0.6,0.2-1,0.2c-1.2,0-1.8-0.7-1.8-2v-4.2h-1.2v-0.9h1.2v-1.7l1.1-0.3v2.1h1.8v0.9h-1.8
			v4c0,0.5,0.1,0.8,0.2,1c0.2,0.2,0.4,0.3,0.8,0.3c0.3,0,0.5-0.1,0.7-0.2L150.2,38.4L150.2,38.4z"/>
		<path class="st0" d="M156.7,35.3h-5c0,0.8,0.2,1.4,0.7,1.9c0.4,0.4,1,0.6,1.7,0.6c0.8,0,1.5-0.3,2.2-0.8v1
			c-0.6,0.5-1.4,0.7-2.4,0.7c-1,0-1.8-0.3-2.3-1c-0.6-0.7-0.8-1.6-0.8-2.7c0-1.1,0.3-2,0.9-2.7c0.6-0.7,1.4-1,2.3-1
			c0.9,0,1.6,0.3,2.1,0.9c0.5,0.6,0.7,1.4,0.7,2.5v0.6H156.7z M155.7,34.3c0-0.7-0.2-1.2-0.5-1.5c-0.3-0.4-0.8-0.6-1.3-0.6
			s-1,0.2-1.4,0.6c-0.4,0.4-0.6,0.9-0.7,1.5H155.7z"/>
		<path class="st0" d="M168,38.5h-1.1v-4c0-0.8-0.1-1.4-0.4-1.8c-0.2-0.3-0.7-0.5-1.2-0.5c-0.5,0-0.9,0.2-1.2,0.7
			c-0.3,0.5-0.5,1-0.5,1.6v4h-1.1v-4.2c0-1.4-0.5-2.1-1.6-2.1c-0.5,0-0.9,0.2-1.2,0.6c-0.3,0.4-0.5,1-0.5,1.6v4h-1.1v-7.1h1.1v1.1
			l0,0c0.5-0.9,1.2-1.3,2.2-1.3c0.5,0,0.9,0.1,1.2,0.4c0.4,0.3,0.6,0.6,0.8,1.1c0.5-1,1.3-1.5,2.3-1.5c1.5,0,2.3,1,2.3,2.9L168,38.5
			L168,38.5z"/>
	</g>
</g>
</svg>
